<svg xmlns="http://www.w3.org/2000/svg" viewBox="0 0 75 75"><defs><style>.cls-1{fill:#009444;}.cls-2{fill:#fff;}.cls-3{font-size:25px;fill:#231f20;font-family:LeagueSpartan-Bold, League Spartan;font-weight:700;}</style></defs><title>Artboard 1 copy 2</title><g id="Layer_1" data-name="Layer 1"><circle class="cls-1" cx="37.45" cy="37.38" r="36.13"/></g><g id="Layer_2" data-name="Layer 2"><path class="cls-2" d="M54.13,26.38a17,17,0,0,1-7.82,14.46v6.9a3.16,3.16,0,0,1-3.16,3.16H32.78a3.16,3.16,0,0,1-3.16-3.16v-6.9A17,17,0,0,1,21.8,26.38C21.8,17.05,29,9.5,38,9.5S54.13,17.05,54.13,26.38Z"/><rect class="cls-2" x="29.61" y="52.21" width="16.7" height="2.27" rx="1.14" ry="1.14"/><rect class="cls-2" x="29.61" y="55.77" width="16.7" height="2.27" rx="1.14" ry="1.14"/><rect class="cls-2" x="34.65" y="58.93" width="6.63" height="3.39" rx="0.96" ry="0.96"/><text class="cls-3" transform="translate(30.33 40.75)">?</text></g></svg>