<svg xmlns="http://www.w3.org/2000/svg" viewBox="0 0 75 75"><defs><style>.cls-1{fill:#009444;}.cls-2{fill:none;}.cls-3,.cls-4{fill:#231f20;}.cls-4{fill-rule:evenodd;}.cls-5{fill:#fff;stroke:#fff;stroke-miterlimit:10;stroke-width:1.34px;}</style></defs><title>Artboard 1</title><g id="Layer_1" data-name="Layer 1"><circle class="cls-1" cx="37.45" cy="37.38" r="36.13"/></g><g id="Layer_2" data-name="Layer 2"><rect class="cls-2" x="26" y="-1.33" width="30" height="26"/><rect class="cls-3" x="39.06" y="17.92" width="3" height="4.83"/><rect class="cls-3" x="39.06" y="9.26" width="3" height="4.83"/><rect class="cls-3" x="39.06" y="0.64" width="3" height="4.83"/><rect class="cls-2" x="56" y="24.67" width="25.67" height="30"/><rect class="cls-3" x="66.46" y="38.61" width="4.76" height="3"/><rect class="cls-3" x="57.94" y="38.61" width="4.76" height="3"/><rect class="cls-3" x="39.73" y="26.73" width="3.01" height="5"/><polygon class="cls-4" points="39.73 40.73 39.73 35.73 42.74 35.73 42.74 37.73 44.73 37.73 44.73 40.73 39.73 40.73"/><rect class="cls-3" x="48.73" y="37.73" width="5" height="3"/><path class="cls-5" d="M34,59.5a.59.59,0,0,1-.83,0l-3.8-3.76L21.3,63.81a1.62,1.62,0,0,1-2.28,0l-3.7-3.7a1.62,1.62,0,0,1,0-2.28l8-8-3.65-3.62a.59.59,0,0,1,.19-1L39.36,39a.58.58,0,0,1,.77.77l-6,19.5A.6.6,0,0,1,34,59.5Z"/></g></svg>