<svg xmlns="http://www.w3.org/2000/svg" viewBox="0 0 75 75"><defs><style>.cls-1{fill:#009444;}.cls-2{fill:#231f20;}.cls-3,.cls-4{fill:#fff;}.cls-4{stroke:#fff;stroke-miterlimit:10;stroke-width:1.34px;}</style></defs><title>Artboard 1 copy 3</title><g id="Layer_1" data-name="Layer 1"><circle class="cls-1" cx="37.45" cy="37.38" r="36.13"/></g><g id="Layer_2" data-name="Layer 2"><rect class="cls-2" x="16.64" y="18.39" width="42.34" height="28.95"/><path class="cls-3" d="M18.17,13.6H57.58A1.46,1.46,0,0,1,59,15.06v3.18a0,0,0,0,1,0,0H16.7a0,0,0,0,1,0,0V15.06A1.46,1.46,0,0,1,18.17,13.6Z"/><circle class="cls-2" cx="19.56" cy="16.13" r="1.37"/><circle class="cls-2" cx="23.51" cy="16.13" r="1.37"/><circle class="cls-2" cx="27.25" cy="16.13" r="1.37"/><path class="cls-4" d="M47.71,51.61a.59.59,0,0,1-.59.59l-5.35,0V63.64a1.62,1.62,0,0,1-1.62,1.61H34.93a1.62,1.62,0,0,1-1.62-1.61V52.26l-5.15,0a.59.59,0,0,1-.55-.81L37,33.35a.58.58,0,0,1,1.08,0l9.55,18A.6.6,0,0,1,47.71,51.61Z"/></g></svg>