<svg xmlns="http://www.w3.org/2000/svg" viewBox="0 0 75 75"><defs><style>.cls-1{fill:#009444;}.cls-2{fill:#231f20;stroke:#231f20;stroke-linecap:round;stroke-linejoin:round;}</style></defs><title>Artboard 1 copy 4</title><g id="Layer_1" data-name="Layer 1"><circle class="cls-1" cx="37.45" cy="37.38" r="36.13"/></g><g id="Layer_2" data-name="Layer 2"><rect class="cls-2" x="23.59" y="25.78" width="33.18" height="3.67"/><rect class="cls-2" x="25.47" y="39.95" width="30.22" height="3.5"/><rect class="cls-2" x="26.82" y="48.74" width="27.93" height="3.6"/><rect class="cls-2" x="12.35" y="20.37" width="10.14" height="3.6"/><rect class="cls-2" x="46.31" y="32.8" width="17.57" height="3.6" transform="translate(20.49 89.69) rotate(-90)"/><polygon class="cls-2" points="26.82 52.33 19 21.22 22.49 20.37 30.33 52.29 26.82 52.33"/><circle class="cls-2" cx="29.79" cy="58.31" r="3.03"/><circle class="cls-2" cx="52.25" cy="58.31" r="3.03"/><rect class="cls-2" x="31.63" y="29.13" width="1.47" height="11.5"/><rect class="cls-2" x="38.63" y="28.5" width="1.47" height="11.5"/><rect class="cls-2" x="45.88" y="28.88" width="1.47" height="11.5"/><rect class="cls-2" x="38.37" y="19.76" width="1.47" height="29.98" transform="translate(4.35 73.85) rotate(-90)"/></g></svg>