<svg id="Layer_1" data-name="Layer 1" xmlns="http://www.w3.org/2000/svg" viewBox="0 0 300 300"><defs><style>.cls-1{fill:#231f20;}.cls-2,.cls-3{fill:#fff;}.cls-3{stroke:#231f20;stroke-miterlimit:10;stroke-width:6px;}</style></defs><title>Artboard 1</title><ellipse class="cls-1" cx="150.34" cy="150.66" rx="149.05" ry="149.09"/><ellipse class="cls-2" cx="149.67" cy="150" rx="115.11" ry="115.14"/><ellipse class="cls-1" cx="151" cy="150.66" rx="77.95" ry="77.97"/><ellipse class="cls-2" cx="150.34" cy="150.66" rx="42.13" ry="42.14"/><path class="cls-3" d="M107.85,265.74a2.66,2.66,0,0,1-3.74,0L87,248.84,50.8,285.09a7.26,7.26,0,0,1-10.26,0l-16.6-16.6a7.26,7.26,0,0,1,0-10.26l36.13-36.13L43.65,205.82a2.63,2.63,0,0,1,.86-4.32l87.4-27.66a2.63,2.63,0,0,1,3.45,3.44l-26.92,87.59A2.71,2.71,0,0,1,107.85,265.74Z"/><path class="cls-1" d="M91.08,60.79l1.53,1.56a5.35,5.35,0,0,1-1,1.83l7,9.57a4.32,4.32,0,0,1,1.84-.27l1,1.93a67.06,67.06,0,0,0-5.41,4.2l-1.63-1.45a3.85,3.85,0,0,1,.73-1.73l-7.53-9.19a4.77,4.77,0,0,1-2,.56l-1.13-1.87A82.13,82.13,0,0,1,91.08,60.79Z"/><path class="cls-1" d="M116.2,56.58c-.24-.65-.55-1.68-.92-3.1l-.16-.61-.32.09c0,1.56.07,2.8,0,3.74a105.47,105.47,0,0,0,.24,10.92c-1.37.61-2.06.94-3.41,1.62a96.81,96.81,0,0,0-8.55-6.94,16.58,16.58,0,0,1-2.42-2l-.48-.41-.28.19a29.8,29.8,0,0,1,2.21,3.16l3.47,5.89a3.51,3.51,0,0,1,1.89,0l.73,1.89c-2,1.11-2.91,1.7-4.8,3l-1.35-1.5a3.57,3.57,0,0,1,.84-1.7L96.47,60.72A4.6,4.6,0,0,1,94.3,61l-.82-1.86c2.69-1.79,4.06-2.63,6.85-4.17A98.62,98.62,0,0,1,109.44,62a10.67,10.67,0,0,1,2.35,2.36l.27.36.38-.18a9.55,9.55,0,0,1-.5-3.72,107.12,107.12,0,0,1,.14-11.42c2.88-1.13,4.34-1.63,7.28-2.52l.9,1.82a4.4,4.4,0,0,1-1.54,1.48l3.64,11.34a3.6,3.6,0,0,1,1.79.4c.14.86.21,1.29.35,2.15-2.45.74-3.66,1.16-6.05,2.1l-1-1.88a3.62,3.62,0,0,1,1.16-1.43Z"/><path class="cls-1" d="M132,55.87l-1.33.26.61,3a4.78,4.78,0,0,1,2.76.52c0,.87,0,1.31.08,2.17a66.55,66.55,0,0,0-7.36,1.62l-.84-2a3.59,3.59,0,0,1,1.32-1.23l-2.93-11.52a4.4,4.4,0,0,1-2-.39c-.1-.87-.15-1.3-.24-2.17a81.5,81.5,0,0,1,8.84-2c3.12-.51,5.52-.33,7.13.35s2.47,2.13,2.63,4.27C141,52.73,138.07,54.76,132,55.87Zm-1.12-8.81-2,.37,1.19,5.91,2-.39a6.1,6.1,0,0,0,3-1.19,2.74,2.74,0,0,0,.73-2.55,2.29,2.29,0,0,0-1.48-2.13A7.55,7.55,0,0,0,130.9,47.06Z"/><path class="cls-1" d="M159.81,48.79a3.91,3.91,0,0,1-1.7,2.77,9.67,9.67,0,0,1-3.45,1.49,3.62,3.62,0,0,1,1.87,1.5c.73,1.53,1.07,2.3,1.72,3.84a3.91,3.91,0,0,1,1.68,1.21l-.57,1.94c-1.86-.27-2.8-.38-4.67-.55-1.05-2.65-1.63-4-2.88-6.58-.29-.66-.65-1-1.07-1l-2,0-.05,4.16a4.76,4.76,0,0,1,2.58,1.09c-.15.86-.23,1.29-.37,2.14a66.82,66.82,0,0,0-7.5,0c-.16-.86-.24-1.28-.4-2.14a3.56,3.56,0,0,1,1.54-.93l-.45-11.87a4.35,4.35,0,0,1-1.86-.8c.08-.87.13-1.3.22-2.17a81.84,81.84,0,0,1,8.67-.08,14.68,14.68,0,0,1,6.93,1.67A4,4,0,0,1,159.81,48.79Zm-9-3.16-1.95,0-.06,4.94,1.78,0a8,8,0,0,0,3.21-.37,2.25,2.25,0,0,0,.24-3.84A7,7,0,0,0,150.81,45.62Z"/><path class="cls-1" d="M171.59,45.7c-.08.87-.12,1.31-.2,2.17a5.06,5.06,0,0,1-2,.42l-2.72,11.57A4.12,4.12,0,0,1,168,61.07l-.81,2c-2.54-.64-3.82-.9-6.39-1.33,0-.87,0-1.3.07-2.18a3.57,3.57,0,0,1,1.7-.58l2.14-11.69a4.36,4.36,0,0,1-1.65-1.18l.68-2.07C166.92,44.59,168.48,44.92,171.59,45.7Z"/><path class="cls-1" d="M176.69,55.68l-2.21,6.47a3.45,3.45,0,0,1,1.18,1.44l-.95,1.79c-2.08-.75-3.12-1.08-5.24-1.68.11-.8.16-1.2.27-2a3.44,3.44,0,0,1,1.79-.48L175,49.71a4.39,4.39,0,0,1-1.56-1.45l.87-1.84c2.72.77,4.07,1.2,6.74,2.17a85.49,85.49,0,0,1,2.28,11.79,13.72,13.72,0,0,1,0,3.2l-.07.65.34,0a22.2,22.2,0,0,1,1.22-3.62l2.84-6.11a4.68,4.68,0,0,1-1.29-1.67l1.12-1.69c2.48,1.11,3.71,1.7,6.13,3L193,56.11a4.75,4.75,0,0,1-2.12,0L184,69.42c-1.59-.81-2.4-1.2-4-1.92a81.55,81.55,0,0,0-1.81-11.67,17,17,0,0,1-.33-3.23c0-.26,0-.38,0-.64l-.38,0A19.11,19.11,0,0,1,176.69,55.68Z"/><path class="cls-1" d="M211.18,66.19,208.76,69c-.72-.51-1.08-.75-1.81-1.24a2.59,2.59,0,0,1,0-1.4c-1.31-1-2-1.55-3.31-2.53l-7.11,9.74a4.38,4.38,0,0,1,.82,1.68l-1.54,1.54A66.65,66.65,0,0,0,190.24,73l.9-2a3.72,3.72,0,0,1,1.84.16L199.57,61c-1.38-.9-2.08-1.34-3.48-2.17a2.58,2.58,0,0,1-1.28.51c-.69-.5-1-.74-1.74-1.23l1.79-3.26A81.72,81.72,0,0,1,211.18,66.19Z"/></svg>