<svg id="Layer_1" data-name="Layer 1" xmlns="http://www.w3.org/2000/svg" viewBox="0 0 300 300"><defs><style>.cls-1,.cls-3,.cls-4,.cls-6{fill:#fff;}.cls-1,.cls-4{stroke:#231f20;stroke-miterlimit:10;}.cls-1{stroke-linecap:round;stroke-width:3px;}.cls-2{fill:#231f20;}.cls-4{stroke-width:2.63px;}.cls-5{fill:#2bb673;}.cls-6{font-size:60px;font-family:PatuaOne-Regular, Patua One;}</style></defs><title>Artboard 1 copy</title><path class="cls-1" d="M271.57,49.36v55.47H235.24v176.9H57.12V104.82H20.79V49.36H104a42.6,42.6,0,0,0,81.19,0Z"/><ellipse class="cls-2" cx="148.55" cy="158.41" rx="65.4" ry="65.42"/><ellipse class="cls-3" cx="148.25" cy="158.11" rx="50.51" ry="50.52"/><ellipse class="cls-2" cx="148.84" cy="158.41" rx="34.21" ry="34.22"/><ellipse class="cls-3" cx="148.55" cy="158.41" rx="18.49" ry="18.49"/><path class="cls-4" d="M129.9,208.9a1.17,1.17,0,0,1-1.64,0l-7.49-7.42-15.91,15.91a3.18,3.18,0,0,1-4.5,0l-7.29-7.29a3.18,3.18,0,0,1,0-4.5l15.86-15.86-7.2-7.14a1.15,1.15,0,0,1,.38-1.9l38.35-12.14a1.15,1.15,0,0,1,1.51,1.51l-11.81,38.44A1.19,1.19,0,0,1,129.9,208.9Z"/><path class="cls-2" d="M122.54,119l.67.68a2.36,2.36,0,0,1-.45.8l3.09,4.2a1.9,1.9,0,0,1,.81-.12l.44.85a29.43,29.43,0,0,0-2.37,1.84l-.71-.64a1.69,1.69,0,0,1,.32-.76l-3.3-4a2.09,2.09,0,0,1-.9.25l-.49-.82A36,36,0,0,1,122.54,119Z"/><path class="cls-2" d="M133.56,117.12c-.11-.28-.24-.74-.4-1.36l-.07-.27-.14,0c0,.68,0,1.23,0,1.64a46.29,46.29,0,0,0,.11,4.79c-.6.27-.9.41-1.5.71a42.49,42.49,0,0,0-3.75-3,7.27,7.27,0,0,1-1.06-.86l-.21-.18-.12.08a13.09,13.09,0,0,1,1,1.39l1.52,2.59a1.55,1.55,0,0,1,.83,0l.32.83c-.86.49-1.28.75-2.11,1.3l-.59-.66a1.57,1.57,0,0,1,.37-.75l-2.85-4.44a2,2,0,0,1-1,.12l-.36-.82c1.18-.79,1.78-1.15,3-1.83a43.27,43.27,0,0,1,4,3.1,4.66,4.66,0,0,1,1,1l.12.16.17-.08a4.19,4.19,0,0,1-.22-1.63,47,47,0,0,1,.06-5c1.26-.49,1.9-.71,3.2-1.1l.4.8a1.93,1.93,0,0,1-.67.65l1.6,5a1.58,1.58,0,0,1,.79.17l.15.94c-1.07.33-1.61.51-2.66.92l-.46-.82a1.59,1.59,0,0,1,.51-.63Z"/><path class="cls-2" d="M140.51,116.81l-.58.11.27,1.32a2.1,2.1,0,0,1,1.21.23c0,.38,0,.57,0,1a29.2,29.2,0,0,0-3.23.71l-.37-.88a1.57,1.57,0,0,1,.58-.54l-1.29-5.05a1.93,1.93,0,0,1-.88-.17c0-.38-.07-.57-.11-1a35.76,35.76,0,0,1,3.88-.86,5.88,5.88,0,0,1,3.13.15,2,2,0,0,1,1.15,1.87C144.45,115.43,143.16,116.32,140.51,116.81Zm-.49-3.86-.86.16.52,2.59.9-.17a2.68,2.68,0,0,0,1.32-.52,1.2,1.2,0,0,0,.32-1.12,1,1,0,0,0-.65-.94A3.32,3.32,0,0,0,140,112.95Z"/><path class="cls-2" d="M152.7,113.7a1.72,1.72,0,0,1-.75,1.22,4.24,4.24,0,0,1-1.51.65,1.58,1.58,0,0,1,.82.66c.32.67.47,1,.76,1.68a1.72,1.72,0,0,1,.74.53l-.25.85c-.82-.12-1.23-.17-2-.24-.46-1.16-.71-1.74-1.27-2.89-.13-.29-.29-.44-.47-.44l-.86,0,0,1.83A2.09,2.09,0,0,1,149,118l-.16.94a29.32,29.32,0,0,0-3.29,0l-.18-.94a1.56,1.56,0,0,1,.67-.41l-.2-5.21a1.91,1.91,0,0,1-.82-.35c0-.38.06-.57.09-1a35.91,35.91,0,0,1,3.8,0,6.45,6.45,0,0,1,3,.73A1.77,1.77,0,0,1,152.7,113.7Zm-3.95-1.39-.86,0,0,2.17.78,0a3.5,3.5,0,0,0,1.41-.16,1,1,0,0,0,.11-1.69A3.06,3.06,0,0,0,148.75,112.31Z"/><path class="cls-2" d="M157.87,112.35c0,.38-.05.57-.09,1a2.23,2.23,0,0,1-.87.19l-1.19,5.08a1.81,1.81,0,0,1,.59.53l-.35.89c-1.11-.28-1.67-.4-2.8-.58,0-.38,0-.57,0-1a1.57,1.57,0,0,1,.75-.25l.94-5.13a1.92,1.92,0,0,1-.72-.52l.3-.91C155.82,111.86,156.51,112,157.87,112.35Z"/><path class="cls-2" d="M160.11,116.73l-1,2.84a1.52,1.52,0,0,1,.52.63l-.42.78c-.91-.33-1.37-.47-2.3-.74l.12-.88a1.51,1.51,0,0,1,.79-.21l1.52-5a1.92,1.92,0,0,1-.69-.64l.38-.81c1.19.34,1.78.53,3,1a37.51,37.51,0,0,1,1,5.17,6,6,0,0,1,0,1.4l0,.29.15,0a9.76,9.76,0,0,1,.54-1.59l1.25-2.68a2.05,2.05,0,0,1-.56-.73l.49-.74c1.09.49,1.63.75,2.69,1.31l-.28.85a2.08,2.08,0,0,1-.93,0l-3,5.84c-.7-.36-1.05-.53-1.76-.84a35.78,35.78,0,0,0-.8-5.12,7.45,7.45,0,0,1-.15-1.42v-.28h-.17A8.37,8.37,0,0,1,160.11,116.73Z"/><path class="cls-2" d="M175.24,121.34l-1.06,1.24-.79-.54a1.13,1.13,0,0,1,0-.61c-.57-.46-.86-.68-1.45-1.11l-3.12,4.28a1.92,1.92,0,0,1,.36.74l-.68.68a29.25,29.25,0,0,0-2.45-1.69l.39-.87a1.63,1.63,0,0,1,.81.07l2.89-4.43c-.61-.4-.91-.59-1.53-1a1.13,1.13,0,0,1-.56.22l-.76-.54.79-1.43A35.86,35.86,0,0,1,175.24,121.34Z"/><circle class="cls-5" cx="246.31" cy="258.75" r="38.06"/><text class="cls-6" transform="translate(230.9 277.87)">2</text></svg>