<svg id="Layer_1" data-name="Layer 1" xmlns="http://www.w3.org/2000/svg" viewBox="0 0 300 300"><defs><style>.cls-1,.cls-3,.cls-4,.cls-8{fill:#fff;}.cls-1,.cls-4,.cls-5,.cls-6{stroke:#231f20;}.cls-1,.cls-5,.cls-6{stroke-linecap:round;stroke-width:2px;}.cls-1,.cls-4,.cls-6{stroke-miterlimit:10;}.cls-2{fill:#231f20;}.cls-4{stroke-width:0.84px;}.cls-5,.cls-6{fill:none;}.cls-5{stroke-linejoin:round;}.cls-7{fill:#2bb673;}.cls-8{font-size:60px;font-family:PatuaOne-Regular, Patua One;}</style></defs><title>Artboard 1 copy 2</title><path class="cls-1" d="M148.69,72.1V89.73H137.14V146H80.52V89.73H69V72.1H95.43a13.54,13.54,0,0,0,25.81,0Z"/><ellipse class="cls-2" cx="109.58" cy="106.76" rx="20.79" ry="20.8"/><ellipse class="cls-3" cx="109.49" cy="106.67" rx="16.06" ry="16.06"/><circle class="cls-2" cx="109.68" cy="106.76" r="10.87"/><circle class="cls-3" cx="109.58" cy="106.76" r="5.88"/><path class="cls-4" d="M103.66,122.82a.37.37,0,0,1-.52,0l-2.38-2.36-5.06,5.06a1,1,0,0,1-1.43,0L92,123.2a1,1,0,0,1,0-1.43l5-5-2.29-2.27a.37.37,0,0,1,.12-.6L107,110a.37.37,0,0,1,.48.48l-3.76,12.22A.38.38,0,0,1,103.66,122.82Z"/><path class="cls-2" d="M101.32,94.23l.21.22a.74.74,0,0,1-.14.26l1,1.34a.61.61,0,0,1,.26,0l.14.27a9.36,9.36,0,0,0-.75.59l-.23-.2a.54.54,0,0,1,.1-.24l-1.05-1.28a.66.66,0,0,1-.29.08l-.16-.26A11.46,11.46,0,0,1,101.32,94.23Z"/><path class="cls-2" d="M104.82,93.64q-.05-.14-.13-.43l0-.09h0c0,.22,0,.39,0,.52a14.72,14.72,0,0,0,0,1.52l-.48.23a13.51,13.51,0,0,0-1.19-1,2.32,2.32,0,0,1-.34-.27l-.07-.06,0,0a4.23,4.23,0,0,1,.31.44l.48.82a.49.49,0,0,1,.26,0l.1.26c-.27.15-.41.24-.67.41l-.19-.21a.5.5,0,0,1,.12-.24l-.91-1.41a.64.64,0,0,1-.3,0l-.11-.26c.37-.25.57-.37,1-.58a13.77,13.77,0,0,1,1.27,1,1.49,1.49,0,0,1,.33.33l0,.05.05,0a1.34,1.34,0,0,1-.07-.52,14.94,14.94,0,0,1,0-1.59c.4-.16.61-.23,1-.35l.13.25a.62.62,0,0,1-.21.21l.51,1.58a.5.5,0,0,1,.25.06l0,.3c-.34.1-.51.16-.84.29l-.15-.26a.5.5,0,0,1,.16-.2Z"/><path class="cls-2" d="M107,93.54l-.19,0,.08.42a.67.67,0,0,1,.39.07c0,.12,0,.18,0,.3a9.28,9.28,0,0,0-1,.23l-.12-.28a.5.5,0,0,1,.18-.17L106,92.54a.61.61,0,0,1-.28-.05l0-.3a11.37,11.37,0,0,1,1.23-.27,1.87,1.87,0,0,1,1,0,.64.64,0,0,1,.37.6C108.28,93.1,107.87,93.38,107,93.54Zm-.16-1.23-.27.05.17.83.29-.05a.85.85,0,0,0,.42-.17.38.38,0,0,0,.1-.36.32.32,0,0,0-.21-.3A1,1,0,0,0,106.87,92.31Z"/><path class="cls-2" d="M110.9,92.55a.55.55,0,0,1-.24.39,1.36,1.36,0,0,1-.48.21.51.51,0,0,1,.26.21c.1.21.15.32.24.53a.54.54,0,0,1,.23.17l-.08.27-.65-.08c-.15-.37-.23-.55-.4-.92,0-.09-.09-.14-.15-.14h-.27v.58a.67.67,0,0,1,.36.15l-.05.3a9.32,9.32,0,0,0-1,0l-.06-.3a.5.5,0,0,1,.21-.13l-.06-1.66a.6.6,0,0,1-.26-.11l0-.3a11.42,11.42,0,0,1,1.21,0,2,2,0,0,1,1,.23A.56.56,0,0,1,110.9,92.55Zm-1.26-.44h-.27v.69h.25a1.11,1.11,0,0,0,.45-.05.31.31,0,0,0,0-.54A1,1,0,0,0,109.65,92.11Z"/><path class="cls-2" d="M112.55,92.12l0,.3a.7.7,0,0,1-.28.06l-.38,1.61a.58.58,0,0,1,.19.17l-.11.28c-.35-.09-.53-.13-.89-.19,0-.12,0-.18,0-.3a.5.5,0,0,1,.24-.08l.3-1.63a.6.6,0,0,1-.23-.16l.1-.29C111.9,92,112.11,92,112.55,92.12Z"/><path class="cls-2" d="M113.26,93.51l-.31.9a.48.48,0,0,1,.16.2l-.13.25c-.29-.1-.44-.15-.73-.23l0-.28a.48.48,0,0,1,.25-.07l.48-1.6a.61.61,0,0,1-.22-.2l.12-.26c.38.11.57.17.94.3a11.93,11.93,0,0,1,.32,1.64,1.9,1.9,0,0,1,0,.45v.09h0a3.07,3.07,0,0,1,.17-.5l.4-.85a.65.65,0,0,1-.18-.23l.16-.24c.35.15.52.24.85.42l-.09.27a.66.66,0,0,1-.29,0l-.95,1.86-.56-.27a11.37,11.37,0,0,0-.25-1.63,2.37,2.37,0,0,1,0-.45V93h-.05A2.68,2.68,0,0,1,113.26,93.51Z"/><path class="cls-2" d="M118.07,95l-.34.39-.25-.17a.37.37,0,0,1,0-.19l-.46-.35L116,96a.62.62,0,0,1,.11.23l-.22.21a9.3,9.3,0,0,0-.78-.54l.13-.28a.52.52,0,0,1,.26,0l.92-1.41L116,94a.36.36,0,0,1-.18.07l-.24-.17.25-.45A11.4,11.4,0,0,1,118.07,95Z"/><path class="cls-1" d="M252.69,72.1V89.73H241.14V146H184.52V89.73H173V72.1h26.46a13.54,13.54,0,0,0,25.81,0Z"/><ellipse class="cls-2" cx="213.58" cy="106.76" rx="20.79" ry="20.8"/><ellipse class="cls-3" cx="213.49" cy="106.67" rx="16.06" ry="16.06"/><circle class="cls-2" cx="213.68" cy="106.76" r="10.87"/><circle class="cls-3" cx="213.58" cy="106.76" r="5.88"/><path class="cls-4" d="M207.66,122.82a.37.37,0,0,1-.52,0l-2.38-2.36-5.06,5.06a1,1,0,0,1-1.43,0L196,123.2a1,1,0,0,1,0-1.43l5-5-2.29-2.27a.37.37,0,0,1,.12-.6L211,110a.37.37,0,0,1,.48.48l-3.76,12.22A.38.38,0,0,1,207.66,122.82Z"/><path class="cls-2" d="M205.32,94.23l.21.22a.74.74,0,0,1-.14.26l1,1.34a.61.61,0,0,1,.26,0l.14.27a9.36,9.36,0,0,0-.75.59l-.23-.2a.54.54,0,0,1,.1-.24l-1.05-1.28a.66.66,0,0,1-.29.08l-.16-.26A11.46,11.46,0,0,1,205.32,94.23Z"/><path class="cls-2" d="M208.82,93.64q-.05-.14-.13-.43l0-.09h0c0,.22,0,.39,0,.52a14.72,14.72,0,0,0,0,1.52l-.48.23a13.51,13.51,0,0,0-1.19-1,2.32,2.32,0,0,1-.34-.27l-.07-.06,0,0a4.23,4.23,0,0,1,.31.44l.48.82a.49.49,0,0,1,.26,0l.1.26c-.27.15-.41.24-.67.41l-.19-.21a.5.5,0,0,1,.12-.24l-.91-1.41a.64.64,0,0,1-.3,0l-.11-.26c.37-.25.57-.37,1-.58a13.77,13.77,0,0,1,1.27,1,1.49,1.49,0,0,1,.33.33l0,.05.05,0a1.34,1.34,0,0,1-.07-.52,14.94,14.94,0,0,1,0-1.59c.4-.16.61-.23,1-.35l.13.25a.62.62,0,0,1-.21.21l.51,1.58a.5.5,0,0,1,.25.06l0,.3c-.34.1-.51.16-.84.29l-.15-.26a.5.5,0,0,1,.16-.2Z"/><path class="cls-2" d="M211,93.54l-.19,0,.08.42a.67.67,0,0,1,.39.07c0,.12,0,.18,0,.3a9.28,9.28,0,0,0-1,.23l-.12-.28a.5.5,0,0,1,.18-.17L210,92.54a.61.61,0,0,1-.28-.05l0-.3a11.37,11.37,0,0,1,1.23-.27,1.87,1.87,0,0,1,1,0,.64.64,0,0,1,.37.6C212.28,93.1,211.87,93.38,211,93.54Zm-.16-1.23-.27.05.17.83.29-.05a.85.85,0,0,0,.42-.17.38.38,0,0,0,.1-.36.32.32,0,0,0-.21-.3A1,1,0,0,0,210.87,92.31Z"/><path class="cls-2" d="M214.9,92.55a.55.55,0,0,1-.24.39,1.36,1.36,0,0,1-.48.21.51.51,0,0,1,.26.21c.1.21.15.32.24.53a.54.54,0,0,1,.23.17l-.08.27-.65-.08c-.15-.37-.23-.55-.4-.92,0-.09-.09-.14-.15-.14h-.27v.58a.67.67,0,0,1,.36.15l-.05.3a9.32,9.32,0,0,0-1,0l-.06-.3a.5.5,0,0,1,.21-.13l-.06-1.66a.6.6,0,0,1-.26-.11l0-.3a11.42,11.42,0,0,1,1.21,0,2,2,0,0,1,1,.23A.56.56,0,0,1,214.9,92.55Zm-1.26-.44h-.27v.69h.25a1.11,1.11,0,0,0,.45-.05.31.31,0,0,0,0-.54A1,1,0,0,0,213.65,92.11Z"/><path class="cls-2" d="M216.55,92.12l0,.3a.7.7,0,0,1-.28.06l-.38,1.61a.58.58,0,0,1,.19.17l-.11.28c-.35-.09-.53-.13-.89-.19,0-.12,0-.18,0-.3a.5.5,0,0,1,.24-.08l.3-1.63a.6.6,0,0,1-.23-.16l.1-.29C215.9,92,216.11,92,216.55,92.12Z"/><path class="cls-2" d="M217.26,93.51l-.31.9a.48.48,0,0,1,.16.2l-.13.25c-.29-.1-.44-.15-.73-.23l0-.28a.48.48,0,0,1,.25-.07l.48-1.6a.61.61,0,0,1-.22-.2l.12-.26c.38.11.57.17.94.3a11.93,11.93,0,0,1,.32,1.64,1.9,1.9,0,0,1,0,.45v.09h0a3.07,3.07,0,0,1,.17-.5l.4-.85a.65.65,0,0,1-.18-.23l.16-.24c.35.15.52.24.85.42l-.09.27a.66.66,0,0,1-.29,0l-.95,1.86-.56-.27a11.37,11.37,0,0,0-.25-1.63,2.37,2.37,0,0,1,0-.45V93h-.05A2.68,2.68,0,0,1,217.26,93.51Z"/><path class="cls-2" d="M222.07,95l-.34.39-.25-.17a.37.37,0,0,1,0-.19l-.46-.35L220,96a.62.62,0,0,1,.11.23l-.22.21a9.3,9.3,0,0,0-.78-.54l.13-.28a.52.52,0,0,1,.26,0l.92-1.41L220,94a.36.36,0,0,1-.18.07l-.24-.17.25-.45A11.4,11.4,0,0,1,222.07,95Z"/><path class="cls-1" d="M150.69,173.1v17.63H139.14V231H82.52V190.73H71V173.1H97.43a13.54,13.54,0,0,0,25.81,0Z"/><ellipse class="cls-2" cx="111.58" cy="207.76" rx="20.79" ry="20.8"/><ellipse class="cls-3" cx="111.49" cy="207.67" rx="16.06" ry="16.06"/><circle class="cls-2" cx="111.68" cy="207.76" r="10.87"/><circle class="cls-3" cx="111.58" cy="207.76" r="5.88"/><path class="cls-4" d="M105.66,223.82a.37.37,0,0,1-.52,0l-2.38-2.36-5.06,5.06a1,1,0,0,1-1.43,0L94,224.2a1,1,0,0,1,0-1.43l5-5-2.29-2.27a.37.37,0,0,1,.12-.6L109,211a.37.37,0,0,1,.48.48l-3.76,12.22A.38.38,0,0,1,105.66,223.82Z"/><path class="cls-2" d="M103.32,195.23l.21.22a.74.74,0,0,1-.14.26l1,1.34a.61.61,0,0,1,.26,0l.14.27a9.36,9.36,0,0,0-.75.59l-.23-.2a.54.54,0,0,1,.1-.24l-1.05-1.28a.66.66,0,0,1-.29.08l-.16-.26A11.46,11.46,0,0,1,103.32,195.23Z"/><path class="cls-2" d="M106.82,194.64q-.05-.14-.13-.43l0-.09h0c0,.22,0,.39,0,.52a14.72,14.72,0,0,0,0,1.52l-.48.23a13.51,13.51,0,0,0-1.19-1,2.32,2.32,0,0,1-.34-.27l-.07-.06,0,0a4.23,4.23,0,0,1,.31.44l.48.82a.49.49,0,0,1,.26,0l.1.26c-.27.15-.41.24-.67.41l-.19-.21a.5.5,0,0,1,.12-.24l-.91-1.41a.64.64,0,0,1-.3,0l-.11-.26c.37-.25.57-.37,1-.58a13.77,13.77,0,0,1,1.27,1,1.49,1.49,0,0,1,.33.33l0,.05.05,0a1.34,1.34,0,0,1-.07-.52,14.94,14.94,0,0,1,0-1.59c.4-.16.61-.23,1-.35l.13.25a.62.62,0,0,1-.21.21l.51,1.58a.5.5,0,0,1,.25.06l0,.3c-.34.1-.51.16-.84.29l-.15-.26a.5.5,0,0,1,.16-.2Z"/><path class="cls-2" d="M109,194.54l-.19,0,.08.42a.67.67,0,0,1,.39.07c0,.12,0,.18,0,.3a9.28,9.28,0,0,0-1,.23l-.12-.28a.5.5,0,0,1,.18-.17l-.41-1.61a.61.61,0,0,1-.28-.05l0-.3a11.36,11.36,0,0,1,1.23-.27,1.87,1.87,0,0,1,1,0,.64.64,0,0,1,.37.6C110.28,194.1,109.87,194.38,109,194.54Zm-.16-1.23-.27.05.17.83.29-.05a.85.85,0,0,0,.42-.17.38.38,0,0,0,.1-.36.32.32,0,0,0-.21-.3A1,1,0,0,0,108.87,193.31Z"/><path class="cls-2" d="M112.9,193.55a.55.55,0,0,1-.24.39,1.36,1.36,0,0,1-.48.21.51.51,0,0,1,.26.21c.1.21.15.32.24.53a.54.54,0,0,1,.23.17l-.08.27-.65-.08c-.15-.37-.23-.55-.4-.92,0-.09-.09-.14-.15-.14h-.27v.58a.67.67,0,0,1,.36.15l-.05.3a9.32,9.32,0,0,0-1,0l-.06-.3a.5.5,0,0,1,.21-.13l-.06-1.66a.6.6,0,0,1-.26-.11l0-.3a11.41,11.41,0,0,1,1.21,0,2,2,0,0,1,1,.23A.56.56,0,0,1,112.9,193.55Zm-1.26-.44h-.27v.69h.25a1.11,1.11,0,0,0,.45-.05.31.31,0,0,0,0-.54A1,1,0,0,0,111.65,193.11Z"/><path class="cls-2" d="M114.55,193.12l0,.3a.7.7,0,0,1-.28.06l-.38,1.61a.58.58,0,0,1,.19.17l-.11.28c-.35-.09-.53-.13-.89-.19,0-.12,0-.18,0-.3a.5.5,0,0,1,.24-.08l.3-1.63a.6.6,0,0,1-.23-.16l.1-.29C113.9,193,114.11,193,114.55,193.12Z"/><path class="cls-2" d="M115.26,194.51l-.31.9a.48.48,0,0,1,.16.2l-.13.25c-.29-.1-.44-.15-.73-.23l0-.28a.48.48,0,0,1,.25-.07l.48-1.6a.61.61,0,0,1-.22-.2l.12-.26c.38.11.57.17.94.3a11.93,11.93,0,0,1,.32,1.64,1.9,1.9,0,0,1,0,.45v.09h0a3.07,3.07,0,0,1,.17-.5l.4-.85a.65.65,0,0,1-.18-.23l.16-.24c.35.15.52.24.85.42l-.09.27a.66.66,0,0,1-.29,0l-.95,1.86-.56-.27a11.37,11.37,0,0,0-.25-1.63,2.37,2.37,0,0,1,0-.45V194h-.05A2.68,2.68,0,0,1,115.26,194.51Z"/><path class="cls-2" d="M120.07,196l-.34.39-.25-.17a.37.37,0,0,1,0-.19l-.46-.35L118,197a.62.62,0,0,1,.11.23l-.22.21a9.3,9.3,0,0,0-.78-.54l.13-.28a.52.52,0,0,1,.26,0l.92-1.41L118,195a.36.36,0,0,1-.18.07l-.24-.17.25-.45A11.4,11.4,0,0,1,120.07,196Z"/><path class="cls-1" d="M253.69,173.1v17.63H242.14V231H185.52V190.73H174V173.1h26.46a13.54,13.54,0,0,0,25.81,0Z"/><ellipse class="cls-2" cx="214.58" cy="207.76" rx="20.79" ry="20.8"/><ellipse class="cls-3" cx="214.49" cy="207.67" rx="16.06" ry="16.06"/><circle class="cls-2" cx="214.68" cy="207.76" r="10.87"/><circle class="cls-3" cx="214.58" cy="207.76" r="5.88"/><path class="cls-4" d="M208.66,223.82a.37.37,0,0,1-.52,0l-2.38-2.36-5.06,5.06a1,1,0,0,1-1.43,0L197,224.2a1,1,0,0,1,0-1.43l5-5-2.29-2.27a.37.37,0,0,1,.12-.6L212,211a.37.37,0,0,1,.48.48l-3.76,12.22A.38.38,0,0,1,208.66,223.82Z"/><path class="cls-2" d="M206.32,195.23l.21.22a.74.74,0,0,1-.14.26l1,1.34a.61.61,0,0,1,.26,0l.14.27a9.36,9.36,0,0,0-.75.59l-.23-.2a.54.54,0,0,1,.1-.24l-1.05-1.28a.66.66,0,0,1-.29.08l-.16-.26A11.46,11.46,0,0,1,206.32,195.23Z"/><path class="cls-2" d="M209.82,194.64q-.05-.14-.13-.43l0-.09h0c0,.22,0,.39,0,.52a14.72,14.72,0,0,0,0,1.52l-.48.23a13.51,13.51,0,0,0-1.19-1,2.32,2.32,0,0,1-.34-.27l-.07-.06,0,0a4.23,4.23,0,0,1,.31.44l.48.82a.49.49,0,0,1,.26,0l.1.26c-.27.15-.41.24-.67.41l-.19-.21a.5.5,0,0,1,.12-.24l-.91-1.41a.64.64,0,0,1-.3,0l-.11-.26c.37-.25.57-.37,1-.58a13.77,13.77,0,0,1,1.27,1,1.49,1.49,0,0,1,.33.33l0,.05.05,0a1.34,1.34,0,0,1-.07-.52,14.94,14.94,0,0,1,0-1.59c.4-.16.61-.23,1-.35l.13.25a.62.62,0,0,1-.21.21l.51,1.58a.5.5,0,0,1,.25.06l0,.3c-.34.1-.51.16-.84.29l-.15-.26a.5.5,0,0,1,.16-.2Z"/><path class="cls-2" d="M212,194.54l-.19,0,.08.42a.67.67,0,0,1,.39.07c0,.12,0,.18,0,.3a9.28,9.28,0,0,0-1,.23l-.12-.28a.5.5,0,0,1,.18-.17l-.41-1.61a.61.61,0,0,1-.28-.05l0-.3a11.36,11.36,0,0,1,1.23-.27,1.87,1.87,0,0,1,1,0,.64.64,0,0,1,.37.6C213.28,194.1,212.87,194.38,212,194.54Zm-.16-1.23-.27.05.17.83.29-.05a.85.85,0,0,0,.42-.17.38.38,0,0,0,.1-.36.32.32,0,0,0-.21-.3A1,1,0,0,0,211.87,193.31Z"/><path class="cls-2" d="M215.9,193.55a.55.55,0,0,1-.24.39,1.36,1.36,0,0,1-.48.21.51.51,0,0,1,.26.21c.1.21.15.32.24.53a.54.54,0,0,1,.23.17l-.08.27-.65-.08c-.15-.37-.23-.55-.4-.92,0-.09-.09-.14-.15-.14h-.27v.58a.67.67,0,0,1,.36.15l-.05.3a9.32,9.32,0,0,0-1,0l-.06-.3a.5.5,0,0,1,.21-.13l-.06-1.66a.6.6,0,0,1-.26-.11l0-.3a11.41,11.41,0,0,1,1.21,0,2,2,0,0,1,1,.23A.56.56,0,0,1,215.9,193.55Zm-1.26-.44h-.27v.69h.25a1.11,1.11,0,0,0,.45-.05.31.31,0,0,0,0-.54A1,1,0,0,0,214.65,193.11Z"/><path class="cls-2" d="M217.55,193.12l0,.3a.7.7,0,0,1-.28.06l-.38,1.61a.58.58,0,0,1,.19.17l-.11.28c-.35-.09-.53-.13-.89-.19,0-.12,0-.18,0-.3a.5.5,0,0,1,.24-.08l.3-1.63a.6.6,0,0,1-.23-.16l.1-.29C216.9,193,217.11,193,217.55,193.12Z"/><path class="cls-2" d="M218.26,194.51l-.31.9a.48.48,0,0,1,.16.2l-.13.25c-.29-.1-.44-.15-.73-.23l0-.28a.48.48,0,0,1,.25-.07l.48-1.6a.61.61,0,0,1-.22-.2l.12-.26c.38.11.57.17.94.3a11.93,11.93,0,0,1,.32,1.64,1.9,1.9,0,0,1,0,.45v.09h0a3.07,3.07,0,0,1,.17-.5l.4-.85a.65.65,0,0,1-.18-.23l.16-.24c.35.15.52.24.85.42l-.09.27a.66.66,0,0,1-.29,0l-.95,1.86-.56-.27a11.37,11.37,0,0,0-.25-1.63,2.37,2.37,0,0,1,0-.45V194h-.05A2.68,2.68,0,0,1,218.26,194.51Z"/><path class="cls-2" d="M223.07,196l-.34.39-.25-.17a.37.37,0,0,1,0-.19l-.46-.35L221,197a.62.62,0,0,1,.11.23l-.22.21a9.3,9.3,0,0,0-.78-.54l.13-.28a.52.52,0,0,1,.26,0l.92-1.41L221,195a.36.36,0,0,1-.18.07l-.24-.17.25-.45A11.4,11.4,0,0,1,223.07,196Z"/><rect class="cls-5" x="13" y="51.48" width="262" height="179.13"/><path class="cls-5" d="M19.88,21.84h249a6.48,6.48,0,0,1,6.48,6.48v8.24a0,0,0,0,1,0,0h-262a0,0,0,0,1,0,0V28.32A6.48,6.48,0,0,1,19.88,21.84Z"/><rect class="cls-5" x="13.24" y="36.84" width="262" height="14.72"/><circle class="cls-5" cx="25.16" cy="29.16" r="4.83"/><circle class="cls-5" cx="39.08" cy="29.16" r="4.83"/><circle class="cls-5" cx="52.27" cy="29.16" r="4.83"/><rect class="cls-1" x="13" y="51.48" width="31" height="179.02"/><line class="cls-6" x1="77" y1="153.5" x2="141.5" y2="153.5"/><line class="cls-6" x1="77" y1="159.28" x2="141.5" y2="159.28"/><line class="cls-6" x1="181.5" y1="153.5" x2="246" y2="153.5"/><line class="cls-6" x1="181.5" y1="159.28" x2="246" y2="159.28"/><circle class="cls-7" cx="249.79" cy="252.74" r="38.06"/><text class="cls-8" transform="translate(236.5 271.37)">3</text></svg>