<svg id="Layer_1" data-name="Layer 1" xmlns="http://www.w3.org/2000/svg" viewBox="0 0 300 300"><defs><style>.cls-1{fill:#231f20;}.cls-2,.cls-3,.cls-5{fill:#fff;}.cls-3{stroke:#231f20;stroke-miterlimit:10;stroke-width:5.22px;}.cls-4{fill:#2bb673;}.cls-5{font-size:60px;font-family:PatuaOne-Regular, Patua One;}</style></defs><title>Artboard 1</title><ellipse class="cls-1" cx="153.34" cy="150.66" rx="129.66" ry="129.7"/><ellipse class="cls-2" cx="152.76" cy="150.08" rx="100.14" ry="100.17"/><ellipse class="cls-1" cx="153.92" cy="150.66" rx="67.81" ry="67.83"/><ellipse class="cls-2" cx="153.34" cy="150.66" rx="36.65" ry="36.66"/><path class="cls-3" d="M116.38,250.77a2.31,2.31,0,0,1-3.25,0L98.28,236.07,66.74,267.61a6.31,6.31,0,0,1-8.93,0L43.37,253.16a6.31,6.31,0,0,1,0-8.93L74.8,212.8,60.52,198.64a2.29,2.29,0,0,1,.74-3.76l76-24.07a2.28,2.28,0,0,1,3,3L116.88,250A2.36,2.36,0,0,1,116.38,250.77Z"/><path class="cls-1" d="M101.79,72.48l1.33,1.36a4.65,4.65,0,0,1-.9,1.59l6.12,8.33a3.76,3.76,0,0,1,1.6-.23l.88,1.68a58.34,58.34,0,0,0-4.7,3.66L104.7,87.6a3.35,3.35,0,0,1,.64-1.51l-6.55-8a4.14,4.14,0,0,1-1.78.49L96,77A71.44,71.44,0,0,1,101.79,72.48Z"/><path class="cls-1" d="M123.64,68.82c-.21-.56-.48-1.46-.8-2.7l-.14-.53-.28.08c0,1.35.06,2.44,0,3.25a91.75,91.75,0,0,0,.21,9.5c-1.2.53-1.79.82-3,1.41a84.22,84.22,0,0,0-7.44-6,14.51,14.51,0,0,1-2.11-1.71l-.41-.36-.24.17a25.88,25.88,0,0,1,1.93,2.75l3,5.13a3.06,3.06,0,0,1,1.64,0l.64,1.64c-1.7,1-2.53,1.48-4.17,2.57l-1.18-1.31a3.11,3.11,0,0,1,.73-1.48l-5.64-8.79a4,4,0,0,1-1.89.24L103.87,71c2.34-1.56,3.53-2.29,6-3.63a85.8,85.8,0,0,1,7.92,6.15,9.26,9.26,0,0,1,2,2.06l.23.31.33-.15a8.31,8.31,0,0,1-.43-3.23,93.18,93.18,0,0,1,.12-9.94c2.51-1,3.78-1.42,6.34-2.19l.78,1.58a3.83,3.83,0,0,1-1.34,1.29L129,73.15a3.14,3.14,0,0,1,1.56.35c.12.75.18,1.12.3,1.87-2.13.64-3.18,1-5.26,1.83l-.91-1.63a3.15,3.15,0,0,1,1-1.24Z"/><path class="cls-1" d="M137.41,68.2l-1.16.22.53,2.62a4.16,4.16,0,0,1,2.4.45c0,.76,0,1.14.07,1.89a57.89,57.89,0,0,0-6.4,1.41l-.73-1.75A3.13,3.13,0,0,1,133.27,72l-2.55-10a3.82,3.82,0,0,1-1.74-.34c-.09-.75-.13-1.13-.21-1.89a70.9,70.9,0,0,1,7.69-1.7,11.67,11.67,0,0,1,6.21.31A4,4,0,0,1,145,62.05C145.22,65.46,142.67,67.23,137.41,68.2Zm-1-7.66-1.7.32,1,5.14,1.78-.34a5.3,5.3,0,0,0,2.62-1,2.39,2.39,0,0,0,.63-2.22,2,2,0,0,0-1.29-1.86A6.57,6.57,0,0,0,136.43,60.54Z"/><path class="cls-1" d="M161.58,62a3.41,3.41,0,0,1-1.48,2.41,8.43,8.43,0,0,1-3,1.3,3.15,3.15,0,0,1,1.63,1.31c.63,1.33.93,2,1.5,3.34a3.41,3.41,0,0,1,1.47,1l-.5,1.69c-1.62-.24-2.43-.33-4.06-.48-.91-2.31-1.42-3.45-2.51-5.72-.25-.57-.57-.86-.94-.88L152,66l0,3.62a4.14,4.14,0,0,1,2.25.95c-.13.75-.2,1.12-.32,1.87a58.13,58.13,0,0,0-6.52,0c-.14-.74-.21-1.12-.35-1.86a3.1,3.1,0,0,1,1.34-.81l-.39-10.33a3.78,3.78,0,0,1-1.62-.69c.07-.76.11-1.13.19-1.89a71.19,71.19,0,0,1,7.54-.07,12.78,12.78,0,0,1,6,1.45A3.51,3.51,0,0,1,161.58,62Zm-7.83-2.75-1.69,0-.05,4.3,1.55,0a6.94,6.94,0,0,0,2.79-.33,2,2,0,0,0,.21-3.34A6.06,6.06,0,0,0,153.75,59.29Z"/><path class="cls-1" d="M171.83,59.35c-.07.76-.1,1.14-.18,1.89a4.4,4.4,0,0,1-1.73.37l-2.37,10.06a3.6,3.6,0,0,1,1.16,1.05l-.7,1.76c-2.21-.55-3.32-.79-5.56-1.16,0-.76,0-1.14.06-1.89a3.11,3.11,0,0,1,1.48-.5l1.86-10.17a3.79,3.79,0,0,1-1.43-1l.6-1.8C167.76,58.39,169.12,58.67,171.83,59.35Z"/><path class="cls-1" d="M176.26,68l-1.92,5.63a3,3,0,0,1,1,1.25l-.82,1.55c-1.8-.65-2.72-.94-4.55-1.46.1-.7.14-1,.23-1.74a3,3,0,0,1,1.56-.42l3-10a3.81,3.81,0,0,1-1.36-1.26l.76-1.6c2.36.67,3.54,1,5.86,1.89a74.36,74.36,0,0,1,2,10.26,12.09,12.09,0,0,1,0,2.78l-.06.57.3,0a19.36,19.36,0,0,1,1.06-3.15L185.79,67a4.08,4.08,0,0,1-1.12-1.45l1-1.47c2.16,1,3.23,1.48,5.33,2.6l-.56,1.68a4.11,4.11,0,0,1-1.84,0L182.66,80c-1.38-.71-2.08-1-3.5-1.67a70.94,70.94,0,0,0-1.58-10.16,14.86,14.86,0,0,1-.29-2.81c0-.22,0-.33,0-.56h-.33A16.59,16.59,0,0,1,176.26,68Z"/><path class="cls-1" d="M206.27,77.18l-2.1,2.46c-.63-.44-.94-.66-1.57-1.08a2.26,2.26,0,0,1,0-1.21c-1.14-.91-1.71-1.35-2.88-2.2l-6.19,8.48a3.82,3.82,0,0,1,.71,1.46l-1.34,1.34A58,58,0,0,0,188,83.06l.78-1.73a3.23,3.23,0,0,1,1.6.14l5.74-8.79c-1.2-.78-1.81-1.16-3-1.89a2.24,2.24,0,0,1-1.12.45c-.6-.43-.91-.65-1.52-1.07l1.56-2.83A71.09,71.09,0,0,1,206.27,77.18Z"/><circle class="cls-4" cx="241.83" cy="258.75" r="38.06"/><text class="cls-5" transform="translate(232.92 278.87)">1</text></svg>