<svg id="Layer_1" data-name="Layer 1" xmlns="http://www.w3.org/2000/svg" viewBox="0 0 790 500"><defs><style>.cls-1{fill:#2bb673;}.cls-2,.cls-7{fill:#231f20;}.cls-10,.cls-2,.cls-3,.cls-4,.cls-5,.cls-6,.cls-9{stroke:#231f20;}.cls-10,.cls-2,.cls-4,.cls-6{stroke-linecap:round;}.cls-10,.cls-2,.cls-3,.cls-4,.cls-5,.cls-9{stroke-miterlimit:10;}.cls-2{stroke-width:2.7px;}.cls-3,.cls-4,.cls-5,.cls-8,.cls-9{fill:#fff;}.cls-3{stroke-width:1.43px;}.cls-10,.cls-4{stroke-width:2.9px;}.cls-5,.cls-6{stroke-width:2px;}.cls-10,.cls-6{fill:none;}.cls-6{stroke-linejoin:round;}.cls-9{stroke-width:1.21px;}.cls-11{fill:#88c86f;}</style></defs><title>Artboard 1</title><path class="cls-1" d="M163.37,46.46H633.12A44.53,44.53,0,0,1,677.65,91v324.7a0,0,0,0,1,0,0H118.84a0,0,0,0,1,0,0V91a44.53,44.53,0,0,1,44.53-44.53Z"/><path class="cls-2" d="M179.34,69.59h435a40.91,40.91,0,0,1,40.91,40.91V412.73a0,0,0,0,1,0,0H138.43a0,0,0,0,1,0,0V110.5A40.91,40.91,0,0,1,179.34,69.59Z"/><rect class="cls-3" x="159.33" y="134.72" width="470.61" height="259.97"/><rect class="cls-4" x="159.33" y="133.27" width="99.64" height="264.27"/><path class="cls-3" d="M169.2,91.71h452a9.29,9.29,0,0,1,9.29,9.29v12.07a0,0,0,0,1,0,0H159.91a0,0,0,0,1,0,0V101A9.29,9.29,0,0,1,169.2,91.71Z"/><rect class="cls-5" x="159.67" y="113.48" width="470.61" height="21.36"/><circle class="cls-6" cx="176.98" cy="102.34" r="7.01"/><circle class="cls-6" cx="197.18" cy="102.34" r="7.01"/><circle class="cls-6" cx="216.32" cy="102.34" r="7.01"/><path class="cls-4" d="M405,165.43V191H388.24v81.61H306.06V191H289.3V165.43h38.4a19.66,19.66,0,0,0,37.46,0Z"/><ellipse class="cls-7" cx="348.24" cy="215.75" rx="30.18" ry="30.18"/><ellipse class="cls-8" cx="348.1" cy="215.61" rx="23.3" ry="23.31"/><ellipse class="cls-7" cx="348.37" cy="215.75" rx="15.78" ry="15.79"/><circle class="cls-8" cx="348.24" cy="215.75" r="8.53"/><path class="cls-9" d="M339.64,239a.54.54,0,0,1-.76,0l-3.45-3.42L328.09,243a1.47,1.47,0,0,1-2.08,0l-3.36-3.36a1.47,1.47,0,0,1,0-2.08l7.32-7.32-3.32-3.29a.53.53,0,0,1,.17-.87l17.69-5.6a.53.53,0,0,1,.7.7l-5.45,17.73A.55.55,0,0,1,339.64,239Z"/><path class="cls-7" d="M336.24,197.55l.31.32a1.08,1.08,0,0,1-.21.37l1.42,1.94a.88.88,0,0,1,.37-.05l.2.39a13.57,13.57,0,0,0-1.09.85l-.33-.29a.78.78,0,0,1,.15-.35l-1.52-1.86a1,1,0,0,1-.42.11l-.23-.38A16.62,16.62,0,0,1,336.24,197.55Z"/><path class="cls-7" d="M341.33,196.7c0-.13-.11-.34-.19-.63l0-.12-.06,0c0,.32,0,.57,0,.76a21.37,21.37,0,0,0,0,2.21l-.69.33a19.6,19.6,0,0,0-1.73-1.41,3.36,3.36,0,0,1-.49-.4l-.1-.08-.06,0a6.1,6.1,0,0,1,.45.64l.7,1.19a.71.71,0,0,1,.38,0l.15.38c-.39.22-.59.34-1,.6l-.27-.3a.72.72,0,0,1,.17-.35l-1.31-2a.93.93,0,0,1-.44.06l-.17-.38c.54-.36.82-.53,1.39-.85A20,20,0,0,1,340,197.8a2.16,2.16,0,0,1,.48.48l.05.07.08,0a1.94,1.94,0,0,1-.1-.75,21.68,21.68,0,0,1,0-2.31c.58-.23.88-.33,1.47-.51l.18.37a.89.89,0,0,1-.31.3l.74,2.3a.73.73,0,0,1,.36.08l.07.44c-.5.15-.74.24-1.23.43l-.21-.38a.73.73,0,0,1,.24-.29Z"/><path class="cls-7" d="M344.53,196.56l-.27.05.12.61a1,1,0,0,1,.56.11c0,.18,0,.26,0,.44a13.48,13.48,0,0,0-1.49.33l-.17-.41a.73.73,0,0,1,.27-.25L343,195.1a.89.89,0,0,1-.4-.08l0-.44a16.5,16.5,0,0,1,1.79-.4,2.71,2.71,0,0,1,1.44.07.92.92,0,0,1,.53.86C346.35,195.92,345.76,196.33,344.53,196.56Zm-.23-1.78-.4.08.24,1.2.41-.08a1.24,1.24,0,0,0,.61-.24.56.56,0,0,0,.15-.52.46.46,0,0,0-.3-.43A1.53,1.53,0,0,0,344.3,194.77Z"/><path class="cls-7" d="M350.16,195.12a.79.79,0,0,1-.34.56,2,2,0,0,1-.7.3.73.73,0,0,1,.38.3c.15.31.22.46.35.78a.79.79,0,0,1,.34.24l-.12.39c-.38-.06-.57-.08-.94-.11-.21-.54-.33-.8-.58-1.33-.06-.13-.13-.2-.22-.2h-.4v.84a1,1,0,0,1,.52.22l-.08.43a13.53,13.53,0,0,0-1.52,0l-.08-.43a.73.73,0,0,1,.31-.19l-.09-2.4a.88.88,0,0,1-.38-.16l0-.44a16.57,16.57,0,0,1,1.76,0,3,3,0,0,1,1.4.34A.82.82,0,0,1,350.16,195.12Zm-1.82-.64h-.39v1h.36a1.62,1.62,0,0,0,.65-.08.46.46,0,0,0,0-.78A1.41,1.41,0,0,0,348.33,194.48Z"/><path class="cls-7" d="M352.54,194.5l0,.44a1,1,0,0,1-.4.09l-.55,2.34a.84.84,0,0,1,.27.25l-.16.41c-.51-.13-.77-.18-1.29-.27,0-.18,0-.26,0-.44a.73.73,0,0,1,.35-.12l.43-2.37a.88.88,0,0,1-.33-.24l.14-.42C351.6,194.27,351.91,194.34,352.54,194.5Z"/><path class="cls-7" d="M353.57,196.52l-.45,1.31a.7.7,0,0,1,.24.29l-.19.36c-.42-.15-.63-.22-1.06-.34l.05-.41a.7.7,0,0,1,.36-.1l.7-2.33a.89.89,0,0,1-.32-.29l.18-.37c.55.16.82.24,1.36.44a17.3,17.3,0,0,1,.46,2.39,2.78,2.78,0,0,1,0,.65v.13H355a4.48,4.48,0,0,1,.25-.73l.57-1.24a.94.94,0,0,1-.26-.34l.23-.34c.5.22.75.35,1.24.61l-.13.39a1,1,0,0,1-.43,0l-1.38,2.7c-.32-.16-.49-.24-.81-.39a16.5,16.5,0,0,0-.37-2.36,3.47,3.47,0,0,1-.07-.65v-.13h-.08A3.89,3.89,0,0,1,353.57,196.52Z"/><path class="cls-7" d="M360.56,198.64l-.49.57-.37-.25a.53.53,0,0,1,0-.28l-.67-.51-1.44,2a.9.9,0,0,1,.16.34l-.31.31a13.49,13.49,0,0,0-1.13-.78l.18-.4a.76.76,0,0,1,.37,0l1.33-2-.71-.44a.51.51,0,0,1-.26.1l-.35-.25.36-.66A16.54,16.54,0,0,1,360.56,198.64Z"/><path class="cls-4" d="M555.93,165.43V191H539.17v81.61H457V191H440.23V165.43h38.4a19.66,19.66,0,0,0,37.46,0Z"/><ellipse class="cls-7" cx="499.17" cy="215.75" rx="30.18" ry="30.18"/><ellipse class="cls-8" cx="499.04" cy="215.61" rx="23.3" ry="23.31"/><ellipse class="cls-7" cx="499.31" cy="215.75" rx="15.78" ry="15.79"/><circle class="cls-8" cx="499.17" cy="215.75" r="8.53"/><path class="cls-9" d="M490.57,239a.54.54,0,0,1-.76,0l-3.45-3.42L479,243a1.47,1.47,0,0,1-2.08,0l-3.36-3.36a1.47,1.47,0,0,1,0-2.08l7.32-7.32-3.32-3.29a.53.53,0,0,1,.17-.87l17.69-5.6a.53.53,0,0,1,.7.7l-5.45,17.73A.55.55,0,0,1,490.57,239Z"/><path class="cls-7" d="M487.18,197.55l.31.32a1.08,1.08,0,0,1-.21.37l1.42,1.94a.88.88,0,0,1,.37-.05l.2.39a13.57,13.57,0,0,0-1.09.85l-.33-.29a.78.78,0,0,1,.15-.35l-1.52-1.86a1,1,0,0,1-.42.11l-.23-.38A16.63,16.63,0,0,1,487.18,197.55Z"/><path class="cls-7" d="M492.26,196.7c0-.13-.11-.34-.19-.63l0-.12-.06,0c0,.32,0,.57,0,.76a21.36,21.36,0,0,0,0,2.21l-.69.33a19.6,19.6,0,0,0-1.73-1.41,3.36,3.36,0,0,1-.49-.4l-.1-.08-.06,0a6.11,6.11,0,0,1,.45.64l.7,1.19a.71.71,0,0,1,.38,0l.15.38c-.39.22-.59.34-1,.6l-.27-.3a.72.72,0,0,1,.17-.35l-1.31-2a.93.93,0,0,1-.44.06l-.17-.38c.54-.36.82-.53,1.39-.85a20,20,0,0,1,1.84,1.43,2.16,2.16,0,0,1,.48.48l.05.07.08,0a1.94,1.94,0,0,1-.1-.75,21.68,21.68,0,0,1,0-2.31c.58-.23.88-.33,1.47-.51l.18.37a.89.89,0,0,1-.31.3l.74,2.3a.73.73,0,0,1,.36.08l.07.44c-.5.15-.74.24-1.23.43l-.21-.38a.73.73,0,0,1,.24-.29Z"/><path class="cls-7" d="M495.47,196.56l-.27.05.12.61a1,1,0,0,1,.56.11c0,.18,0,.26,0,.44a13.48,13.48,0,0,0-1.49.33l-.17-.41a.73.73,0,0,1,.27-.25l-.59-2.33a.89.89,0,0,1-.4-.08l0-.44a16.5,16.5,0,0,1,1.79-.4,2.71,2.71,0,0,1,1.44.07.92.92,0,0,1,.53.86C497.28,195.92,496.69,196.33,495.47,196.56Zm-.23-1.78-.4.08.24,1.2.41-.08a1.24,1.24,0,0,0,.61-.24.56.56,0,0,0,.15-.52.46.46,0,0,0-.3-.43A1.53,1.53,0,0,0,495.24,194.77Z"/><path class="cls-7" d="M501.09,195.12a.79.79,0,0,1-.34.56,2,2,0,0,1-.7.3.73.73,0,0,1,.38.3c.15.31.22.46.35.78a.79.79,0,0,1,.34.24l-.12.39c-.38-.06-.57-.08-.94-.11-.21-.54-.33-.8-.58-1.33-.06-.13-.13-.2-.22-.2h-.4v.84a1,1,0,0,1,.52.22l-.08.43a13.53,13.53,0,0,0-1.52,0l-.08-.43a.73.73,0,0,1,.31-.19l-.09-2.4a.88.88,0,0,1-.38-.16l0-.44a16.57,16.57,0,0,1,1.76,0,3,3,0,0,1,1.4.34A.82.82,0,0,1,501.09,195.12Zm-1.82-.64h-.39v1h.36a1.62,1.62,0,0,0,.65-.08.46.46,0,0,0,0-.78A1.41,1.41,0,0,0,499.27,194.48Z"/><path class="cls-7" d="M503.48,194.5l0,.44a1,1,0,0,1-.4.09l-.55,2.34a.84.84,0,0,1,.27.25l-.16.41c-.51-.13-.77-.18-1.29-.27,0-.18,0-.26,0-.44a.73.73,0,0,1,.35-.12l.43-2.37a.88.88,0,0,1-.33-.24l.14-.42C502.53,194.27,502.85,194.34,503.48,194.5Z"/><path class="cls-7" d="M504.51,196.52l-.45,1.31a.7.7,0,0,1,.24.29l-.19.36c-.42-.15-.63-.22-1.06-.34l.05-.41a.7.7,0,0,1,.36-.1l.7-2.33a.89.89,0,0,1-.32-.29l.18-.37c.55.16.82.24,1.36.44a17.31,17.31,0,0,1,.46,2.39,2.78,2.78,0,0,1,0,.65v.13h.07a4.48,4.48,0,0,1,.25-.73l.57-1.24a.94.94,0,0,1-.26-.34l.23-.34c.5.22.75.35,1.24.61l-.13.39a1,1,0,0,1-.43,0L506,199.3c-.32-.16-.49-.24-.81-.39a16.51,16.51,0,0,0-.37-2.36,3.47,3.47,0,0,1-.07-.65v-.13h-.08A3.89,3.89,0,0,1,504.51,196.52Z"/><path class="cls-7" d="M511.49,198.64l-.49.57-.37-.25a.53.53,0,0,1,0-.28l-.67-.51-1.44,2a.9.9,0,0,1,.16.34l-.31.31a13.49,13.49,0,0,0-1.13-.78l.18-.4a.76.76,0,0,1,.37,0l1.33-2-.71-.44a.51.51,0,0,1-.26.1l-.35-.25.36-.66A16.55,16.55,0,0,1,511.49,198.64Z"/><path class="cls-4" d="M407.9,312v25.59H391.14V396H309V337.61H292.2V312h38.4a19.66,19.66,0,0,0,37.46,0Z"/><ellipse class="cls-7" cx="351.14" cy="362.33" rx="30.18" ry="30.18"/><ellipse class="cls-8" cx="351.01" cy="362.19" rx="23.3" ry="23.31"/><ellipse class="cls-7" cx="351.28" cy="362.33" rx="15.78" ry="15.79"/><circle class="cls-8" cx="351.14" cy="362.33" r="8.53"/><path class="cls-9" d="M342.54,385.63a.54.54,0,0,1-.76,0l-3.45-3.42L331,389.54a1.47,1.47,0,0,1-2.08,0l-3.36-3.36a1.47,1.47,0,0,1,0-2.08l7.32-7.32-3.32-3.29a.53.53,0,0,1,.17-.87l17.69-5.6a.53.53,0,0,1,.7.7l-5.45,17.73A.55.55,0,0,1,342.54,385.63Z"/><path class="cls-7" d="M339.14,344.13l.31.32a1.08,1.08,0,0,1-.21.37l1.42,1.94a.88.88,0,0,1,.37-.05l.2.39a13.58,13.58,0,0,0-1.09.85l-.33-.29a.78.78,0,0,1,.15-.35l-1.52-1.86a1,1,0,0,1-.42.11l-.23-.38A16.62,16.62,0,0,1,339.14,344.13Z"/><path class="cls-7" d="M344.23,343.28c0-.13-.11-.34-.19-.63l0-.12-.06,0c0,.32,0,.57,0,.76a21.36,21.36,0,0,0,0,2.21l-.69.33a19.6,19.6,0,0,0-1.73-1.41,3.36,3.36,0,0,1-.49-.4L341,344l-.06,0a6.1,6.1,0,0,1,.45.64l.7,1.19a.71.71,0,0,1,.38,0l.15.38c-.39.22-.59.34-1,.6l-.27-.3a.72.72,0,0,1,.17-.35l-1.31-2a.93.93,0,0,1-.44.06l-.17-.38c.54-.36.82-.53,1.39-.85a20,20,0,0,1,1.84,1.43,2.16,2.16,0,0,1,.48.48l.05.07.08,0a1.94,1.94,0,0,1-.1-.75,21.68,21.68,0,0,1,0-2.31c.58-.23.88-.33,1.47-.51l.18.37a.89.89,0,0,1-.31.3l.74,2.3a.73.73,0,0,1,.36.08l.07.44c-.5.15-.74.24-1.23.43l-.21-.38a.73.73,0,0,1,.24-.29Z"/><path class="cls-7" d="M347.43,343.14l-.27.05.12.61a1,1,0,0,1,.56.11c0,.18,0,.26,0,.44a13.47,13.47,0,0,0-1.49.33l-.17-.41a.73.73,0,0,1,.27-.25l-.59-2.33a.89.89,0,0,1-.4-.08l0-.44a16.5,16.5,0,0,1,1.79-.4,2.71,2.71,0,0,1,1.44.07.92.92,0,0,1,.53.86C349.25,342.5,348.66,342.91,347.43,343.14Zm-.23-1.78-.4.08.24,1.2.41-.08a1.24,1.24,0,0,0,.61-.24.56.56,0,0,0,.15-.52.46.46,0,0,0-.3-.43A1.53,1.53,0,0,0,347.21,341.35Z"/><path class="cls-7" d="M353.06,341.7a.79.79,0,0,1-.34.56,2,2,0,0,1-.7.3.73.73,0,0,1,.38.3c.15.31.22.46.35.78a.79.79,0,0,1,.34.24l-.12.39c-.38-.06-.57-.08-.94-.11-.21-.54-.33-.8-.58-1.33-.06-.13-.13-.2-.22-.2h-.4v.84a1,1,0,0,1,.52.22l-.08.43a13.53,13.53,0,0,0-1.52,0l-.08-.43a.73.73,0,0,1,.31-.19l-.09-2.4a.88.88,0,0,1-.38-.16l0-.44a16.57,16.57,0,0,1,1.76,0,3,3,0,0,1,1.4.34A.82.82,0,0,1,353.06,341.7Zm-1.82-.64h-.39v1h.36a1.62,1.62,0,0,0,.65-.08.46.46,0,0,0,0-.78A1.41,1.41,0,0,0,351.24,341.06Z"/><path class="cls-7" d="M355.44,341.08l0,.44a1,1,0,0,1-.4.09l-.55,2.34a.84.84,0,0,1,.27.25l-.16.41c-.51-.13-.77-.18-1.29-.27,0-.18,0-.26,0-.44a.73.73,0,0,1,.35-.12l.43-2.37a.88.88,0,0,1-.33-.24l.14-.42C354.5,340.85,354.81,340.92,355.44,341.08Z"/><path class="cls-7" d="M356.48,343.1l-.45,1.31a.7.7,0,0,1,.24.29l-.19.36c-.42-.15-.63-.22-1.06-.34l.05-.41a.7.7,0,0,1,.36-.1l.7-2.33a.89.89,0,0,1-.32-.29l.18-.37c.55.16.82.24,1.36.44a17.31,17.31,0,0,1,.46,2.39,2.78,2.78,0,0,1,0,.65v.13h.07a4.48,4.48,0,0,1,.25-.73l.57-1.24a1,1,0,0,1-.26-.34l.23-.34c.5.22.75.35,1.24.61l-.13.39a1,1,0,0,1-.43,0l-1.38,2.7c-.32-.16-.49-.24-.81-.39a16.51,16.51,0,0,0-.37-2.36,3.47,3.47,0,0,1-.07-.65v-.13h-.08A3.89,3.89,0,0,1,356.48,343.1Z"/><path class="cls-7" d="M363.46,345.23l-.49.57-.37-.25a.53.53,0,0,1,0-.28l-.67-.51-1.44,2a.9.9,0,0,1,.16.34l-.31.31a13.5,13.5,0,0,0-1.13-.78l.18-.4a.76.76,0,0,1,.37,0l1.33-2-.71-.44a.51.51,0,0,1-.26.1l-.35-.25.36-.66A16.54,16.54,0,0,1,363.46,345.23Z"/><path class="cls-4" d="M557.38,312v25.59H540.62V396H458.44V337.61H441.68V312h38.4a19.66,19.66,0,0,0,37.46,0Z"/><ellipse class="cls-7" cx="500.63" cy="362.33" rx="30.18" ry="30.18"/><ellipse class="cls-8" cx="500.49" cy="362.19" rx="23.3" ry="23.31"/><ellipse class="cls-7" cx="500.76" cy="362.33" rx="15.78" ry="15.79"/><circle class="cls-8" cx="500.63" cy="362.33" r="8.53"/><path class="cls-9" d="M492,385.63a.54.54,0,0,1-.76,0l-3.45-3.42-7.34,7.34a1.47,1.47,0,0,1-2.08,0L475,386.18a1.47,1.47,0,0,1,0-2.08l7.32-7.32L479,373.49a.53.53,0,0,1,.17-.87l17.69-5.6a.53.53,0,0,1,.7.7l-5.45,17.73A.55.55,0,0,1,492,385.63Z"/><path class="cls-7" d="M488.63,344.13l.31.32a1.08,1.08,0,0,1-.21.37l1.42,1.94a.88.88,0,0,1,.37-.05l.2.39a13.58,13.58,0,0,0-1.09.85l-.33-.29a.78.78,0,0,1,.15-.35l-1.52-1.86a1,1,0,0,1-.42.11l-.23-.38A16.62,16.62,0,0,1,488.63,344.13Z"/><path class="cls-7" d="M493.71,343.28c0-.13-.11-.34-.19-.63l0-.12-.06,0c0,.32,0,.57,0,.76a21.37,21.37,0,0,0,0,2.21l-.69.33a19.61,19.61,0,0,0-1.73-1.41,3.36,3.36,0,0,1-.49-.4l-.1-.08-.06,0a6.11,6.11,0,0,1,.45.64l.7,1.19a.71.71,0,0,1,.38,0l.15.38c-.39.22-.59.34-1,.6l-.27-.3a.72.72,0,0,1,.17-.35l-1.31-2a.93.93,0,0,1-.44.06l-.17-.38c.54-.36.82-.53,1.39-.85a20,20,0,0,1,1.84,1.43,2.16,2.16,0,0,1,.48.48l.05.07.08,0a1.94,1.94,0,0,1-.1-.75,21.67,21.67,0,0,1,0-2.31c.58-.23.88-.33,1.47-.51l.18.37a.89.89,0,0,1-.31.3l.74,2.3a.73.73,0,0,1,.36.08l.07.44c-.5.15-.74.24-1.23.43l-.21-.38a.73.73,0,0,1,.24-.29Z"/><path class="cls-7" d="M496.92,343.14l-.27.05.12.61a1,1,0,0,1,.56.11c0,.18,0,.26,0,.44a13.47,13.47,0,0,0-1.49.33l-.17-.41A.73.73,0,0,1,496,344l-.59-2.33a.89.89,0,0,1-.4-.08l0-.44a16.5,16.5,0,0,1,1.79-.4,2.71,2.71,0,0,1,1.44.07.92.92,0,0,1,.53.86C498.74,342.5,498.14,342.91,496.92,343.14Zm-.23-1.78-.4.08.24,1.2.41-.08a1.24,1.24,0,0,0,.61-.24.56.56,0,0,0,.15-.52.46.46,0,0,0-.3-.43A1.53,1.53,0,0,0,496.69,341.35Z"/><path class="cls-7" d="M502.54,341.7a.79.79,0,0,1-.34.56,2,2,0,0,1-.7.3.73.73,0,0,1,.38.3c.15.31.22.46.35.78a.79.79,0,0,1,.34.24l-.12.39c-.38-.06-.57-.08-.94-.11-.21-.54-.33-.8-.58-1.33-.06-.13-.13-.2-.22-.2h-.4v.84a1,1,0,0,1,.52.22l-.08.43a13.53,13.53,0,0,0-1.52,0l-.08-.43a.73.73,0,0,1,.31-.19l-.09-2.4a.88.88,0,0,1-.38-.16l0-.44a16.57,16.57,0,0,1,1.76,0,3,3,0,0,1,1.4.34A.82.82,0,0,1,502.54,341.7Zm-1.82-.64h-.39v1h.36a1.62,1.62,0,0,0,.65-.08.46.46,0,0,0,0-.78A1.41,1.41,0,0,0,500.72,341.06Z"/><path class="cls-7" d="M504.93,341.08l0,.44a1,1,0,0,1-.4.09l-.55,2.34a.84.84,0,0,1,.27.25l-.16.41c-.51-.13-.77-.18-1.29-.27,0-.18,0-.26,0-.44a.73.73,0,0,1,.35-.12l.43-2.37a.88.88,0,0,1-.33-.24l.14-.42C504,340.85,504.3,340.92,504.93,341.08Z"/><path class="cls-7" d="M506,343.1l-.45,1.31a.7.7,0,0,1,.24.29l-.19.36c-.42-.15-.63-.22-1.06-.34l.05-.41a.7.7,0,0,1,.36-.1l.7-2.33a.89.89,0,0,1-.32-.29l.18-.37c.55.16.82.24,1.36.44a17.3,17.3,0,0,1,.46,2.39,2.78,2.78,0,0,1,0,.65v.13h.07a4.48,4.48,0,0,1,.25-.73l.57-1.24a.94.94,0,0,1-.26-.34l.23-.34c.5.22.75.35,1.24.61l-.13.39a1,1,0,0,1-.43,0l-1.38,2.7c-.32-.16-.49-.24-.81-.39a16.51,16.51,0,0,0-.37-2.36,3.47,3.47,0,0,1-.07-.65v-.13h-.08A3.89,3.89,0,0,1,506,343.1Z"/><path class="cls-7" d="M512.94,345.23l-.49.57-.37-.25a.53.53,0,0,1,0-.28l-.67-.51-1.44,2a.9.9,0,0,1,.16.34l-.31.31a13.5,13.5,0,0,0-1.13-.78l.18-.4a.76.76,0,0,1,.37,0l1.33-2-.71-.44a.51.51,0,0,1-.26.1l-.35-.25.36-.66A16.55,16.55,0,0,1,512.94,345.23Z"/><line class="cls-10" x1="300.94" y1="283.57" x2="394.55" y2="283.57"/><line class="cls-10" x1="300.94" y1="291.96" x2="394.55" y2="291.96"/><line class="cls-10" x1="452.61" y1="283.57" x2="546.22" y2="283.57"/><line class="cls-10" x1="452.61" y1="291.96" x2="546.22" y2="291.96"/><rect class="cls-1" x="12.74" y="446.05" width="750.33" height="31.93" rx="13.87" ry="13.87"/><polygon class="cls-11" points="752.92 446.06 23.64 446.79 118.84 415.69 677.65 415.69 752.92 446.06"/></svg>