<svg id="Layer_1" data-name="Layer 1" xmlns="http://www.w3.org/2000/svg" viewBox="0 0 562 500"><defs><style>.cls-1,.cls-3,.cls-4{fill:#fff;}.cls-1,.cls-4{stroke:#231f20;stroke-miterlimit:10;}.cls-1{stroke-linecap:round;stroke-width:5.61px;}.cls-2{fill:#231f20;}.cls-4{stroke-width:2.35px;}</style></defs><title>Artboard 1</title><path class="cls-1" d="M246.89,18.71V68.19H214.48V226H55.57V68.19H23.16V18.71H97.41a37.9,37.9,0,0,0,8,13.94,38,38,0,0,0,56.41,0,37.9,37.9,0,0,0,8-13.94Z"/><ellipse class="cls-2" cx="137.13" cy="116" rx="58.35" ry="58.37"/><ellipse class="cls-3" cx="136.87" cy="115.74" rx="45.06" ry="45.08"/><ellipse class="cls-2" cx="137.39" cy="116" rx="30.52" ry="30.53"/><ellipse class="cls-3" cx="137.13" cy="116" rx="16.49" ry="16.5"/><path class="cls-4" d="M120.5,161a1,1,0,0,1-1.46,0l-6.68-6.62L98.16,168.63a2.84,2.84,0,0,1-4,0l-6.5-6.5a2.84,2.84,0,0,1,0-4L101.79,144l-6.43-6.37a1,1,0,0,1,.33-1.69l34.22-10.83a1,1,0,0,1,1.35,1.35l-10.54,34.29A1.06,1.06,0,0,1,120.5,161Z"/><path class="cls-2" d="M113.93,80.81l.6.61a2.1,2.1,0,0,1-.4.72l2.75,3.75a1.68,1.68,0,0,1,.72-.11l.39.76a26.25,26.25,0,0,0-2.12,1.65l-.64-.57a1.5,1.5,0,0,1,.29-.68l-2.95-3.6a1.87,1.87,0,0,1-.8.22l-.44-.73A32.15,32.15,0,0,1,113.93,80.81Z"/><path class="cls-2" d="M123.77,79.17c-.1-.25-.22-.66-.36-1.21l-.06-.24-.12,0c0,.61,0,1.1,0,1.46a41.27,41.27,0,0,0,.09,4.27c-.54.24-.81.37-1.33.63a37.9,37.9,0,0,0-3.35-2.72,6.5,6.5,0,0,1-.95-.77l-.19-.16-.11.08a11.79,11.79,0,0,1,.87,1.24l1.36,2.31a1.38,1.38,0,0,1,.74,0l.29.74c-.76.43-1.14.67-1.88,1.16l-.53-.59a1.4,1.4,0,0,1,.33-.67l-2.54-4a1.8,1.8,0,0,1-.85.11l-.32-.73c1.05-.7,1.59-1,2.68-1.63a38.61,38.61,0,0,1,3.57,2.77,4.12,4.12,0,0,1,.92.92l.11.14.15-.07a3.71,3.71,0,0,1-.19-1.46,41.93,41.93,0,0,1,.06-4.47c1.13-.44,1.7-.64,2.85-1l.35.71a1.72,1.72,0,0,1-.6.58l1.42,4.44a1.42,1.42,0,0,1,.7.16l.14.84c-1,.29-1.43.45-2.37.82l-.41-.74a1.41,1.41,0,0,1,.46-.56Z"/><path class="cls-2" d="M130,78.89l-.52.1.24,1.18a1.87,1.87,0,0,1,1.08.21c0,.34,0,.51,0,.85a26.05,26.05,0,0,0-2.88.63l-.33-.79a1.4,1.4,0,0,1,.51-.48L127,76.08a1.73,1.73,0,0,1-.78-.15c0-.34-.06-.51-.09-.85a31.91,31.91,0,0,1,3.46-.77,5.25,5.25,0,0,1,2.79.14,1.79,1.79,0,0,1,1,1.67C133.48,77.66,132.33,78.45,130,78.89Zm-.44-3.45-.76.15.47,2.31.8-.15a2.38,2.38,0,0,0,1.18-.46,1.07,1.07,0,0,0,.28-1,.9.9,0,0,0-.58-.84A3,3,0,0,0,129.52,75.44Z"/><path class="cls-2" d="M140.84,76.12a1.53,1.53,0,0,1-.67,1.09,3.76,3.76,0,0,1-1.35.58,1.42,1.42,0,0,1,.73.59c.28.6.42.9.67,1.5a1.54,1.54,0,0,1,.66.47l-.22.76c-.73-.11-1.09-.15-1.83-.21-.41-1-.64-1.55-1.13-2.58-.11-.26-.26-.39-.42-.39l-.77,0,0,1.63a1.86,1.86,0,0,1,1,.43l-.15.84a26.16,26.16,0,0,0-2.93,0l-.16-.84a1.39,1.39,0,0,1,.6-.36L134.7,75a1.71,1.71,0,0,1-.73-.31c0-.34,0-.51.08-.85a32,32,0,0,1,3.39,0,5.76,5.76,0,0,1,2.71.65A1.58,1.58,0,0,1,140.84,76.12Zm-3.52-1.24-.76,0,0,1.93.7,0a3.14,3.14,0,0,0,1.26-.15.88.88,0,0,0,.1-1.5A2.73,2.73,0,0,0,137.32,74.88Z"/><path class="cls-2" d="M145.45,74.91c0,.34,0,.51-.08.85a2,2,0,0,1-.78.17l-1.07,4.53a1.61,1.61,0,0,1,.52.47l-.32.79c-1-.25-1.49-.35-2.5-.52,0-.34,0-.51,0-.85a1.39,1.39,0,0,1,.67-.23l.84-4.58a1.71,1.71,0,0,1-.65-.46l.27-.81C143.62,74.47,144.24,74.6,145.45,74.91Z"/><path class="cls-2" d="M147.45,78.82l-.87,2.53a1.35,1.35,0,0,1,.46.56l-.37.7c-.81-.29-1.22-.42-2-.66l.11-.78a1.35,1.35,0,0,1,.7-.19l1.35-4.5a1.71,1.71,0,0,1-.61-.57l.34-.72c1.06.3,1.59.47,2.64.85a33.47,33.47,0,0,1,.89,4.61,5.34,5.34,0,0,1,0,1.25l0,.26.13,0a8.74,8.74,0,0,1,.48-1.42l1.11-2.39a1.83,1.83,0,0,1-.5-.65l.44-.66c1,.43,1.45.67,2.4,1.17l-.25.76a1.85,1.85,0,0,1-.83,0l-2.66,5.21c-.62-.32-.94-.47-1.57-.75a31.92,31.92,0,0,0-.71-4.57,6.78,6.78,0,0,1-.13-1.26v-.25h-.15A7.48,7.48,0,0,1,147.45,78.82Z"/><path class="cls-2" d="M161,82.93,160,84l-.71-.49a1,1,0,0,1,0-.55c-.51-.41-.77-.61-1.3-1l-2.78,3.81a1.72,1.72,0,0,1,.32.66l-.6.6a26.09,26.09,0,0,0-2.18-1.51l.35-.78a1.46,1.46,0,0,1,.72.06l2.58-4c-.54-.35-.81-.52-1.36-.85a1,1,0,0,1-.5.2l-.68-.48.7-1.27A32,32,0,0,1,161,82.93Z"/><path class="cls-1" d="M538.76,18.71V68.19H506.35V226H347.43V68.19H315V18.71h74.26a37.9,37.9,0,0,0,8,13.94,38,38,0,0,0,56.41,0,37.9,37.9,0,0,0,8-13.94Z"/><ellipse class="cls-2" cx="429" cy="116" rx="58.35" ry="58.37"/><ellipse class="cls-3" cx="428.74" cy="115.74" rx="45.06" ry="45.08"/><ellipse class="cls-2" cx="429.26" cy="116" rx="30.52" ry="30.53"/><ellipse class="cls-3" cx="429" cy="116" rx="16.49" ry="16.5"/><path class="cls-4" d="M412.37,161a1,1,0,0,1-1.46,0l-6.68-6.62L390,168.63a2.84,2.84,0,0,1-4,0l-6.5-6.5a2.84,2.84,0,0,1,0-4L393.66,144l-6.43-6.37a1,1,0,0,1,.33-1.69l34.22-10.83a1,1,0,0,1,1.35,1.35l-10.54,34.29A1.06,1.06,0,0,1,412.37,161Z"/><path class="cls-2" d="M405.8,80.81l.6.61a2.1,2.1,0,0,1-.4.72l2.75,3.75a1.68,1.68,0,0,1,.72-.11l.39.76a26.24,26.24,0,0,0-2.12,1.65l-.64-.57a1.5,1.5,0,0,1,.29-.68l-2.95-3.6a1.87,1.87,0,0,1-.8.22l-.44-.73A32.16,32.16,0,0,1,405.8,80.81Z"/><path class="cls-2" d="M415.63,79.17c-.1-.25-.22-.66-.36-1.21l-.06-.24-.12,0c0,.61,0,1.1,0,1.46a41.28,41.28,0,0,0,.09,4.27c-.54.24-.81.37-1.33.63a37.9,37.9,0,0,0-3.35-2.72,6.5,6.5,0,0,1-.95-.77l-.19-.16-.11.08a11.78,11.78,0,0,1,.87,1.24l1.36,2.31a1.38,1.38,0,0,1,.74,0l.29.74c-.76.43-1.14.67-1.88,1.16l-.53-.59a1.4,1.4,0,0,1,.33-.67l-2.54-4a1.8,1.8,0,0,1-.85.11l-.32-.73c1.05-.7,1.59-1,2.68-1.63A38.6,38.6,0,0,1,413,81.3a4.12,4.12,0,0,1,.92.92l.11.14.15-.07a3.71,3.71,0,0,1-.19-1.46,41.94,41.94,0,0,1,.06-4.47c1.13-.44,1.7-.64,2.85-1l.35.71a1.72,1.72,0,0,1-.6.58L418,81.12a1.42,1.42,0,0,1,.7.16l.14.84c-1,.29-1.43.45-2.37.82l-.41-.74a1.41,1.41,0,0,1,.46-.56Z"/><path class="cls-2" d="M421.83,78.89l-.52.1.24,1.18a1.87,1.87,0,0,1,1.08.21c0,.34,0,.51,0,.85a26.05,26.05,0,0,0-2.88.63l-.33-.79a1.4,1.4,0,0,1,.51-.48l-1.15-4.51a1.73,1.73,0,0,1-.78-.15c0-.34-.06-.51-.09-.85a31.91,31.91,0,0,1,3.46-.77,5.25,5.25,0,0,1,2.79.14,1.78,1.78,0,0,1,1,1.67C425.35,77.66,424.2,78.45,421.83,78.89Zm-.44-3.45-.76.15.47,2.31.8-.15a2.38,2.38,0,0,0,1.18-.46,1.07,1.07,0,0,0,.28-1,.9.9,0,0,0-.58-.84A3,3,0,0,0,421.39,75.44Z"/><path class="cls-2" d="M432.71,76.12A1.53,1.53,0,0,1,432,77.2a3.76,3.76,0,0,1-1.35.58,1.42,1.42,0,0,1,.73.59c.28.6.42.9.67,1.5a1.54,1.54,0,0,1,.66.47l-.22.76c-.73-.11-1.09-.15-1.83-.21-.41-1-.64-1.55-1.13-2.58-.11-.26-.26-.39-.42-.39l-.77,0,0,1.63a1.86,1.86,0,0,1,1,.43l-.15.84a26.16,26.16,0,0,0-2.93,0l-.16-.84a1.39,1.39,0,0,1,.6-.36L426.56,75a1.71,1.71,0,0,1-.73-.31c0-.34,0-.51.08-.85a32,32,0,0,1,3.39,0,5.76,5.76,0,0,1,2.71.65A1.58,1.58,0,0,1,432.71,76.12Zm-3.52-1.24-.76,0,0,1.93.7,0a3.14,3.14,0,0,0,1.26-.15.88.88,0,0,0,.1-1.5A2.73,2.73,0,0,0,429.19,74.88Z"/><path class="cls-2" d="M437.32,74.91c0,.34,0,.51-.08.85a2,2,0,0,1-.78.17l-1.07,4.53a1.61,1.61,0,0,1,.52.47l-.32.79c-1-.25-1.49-.35-2.5-.52,0-.34,0-.51,0-.85a1.39,1.39,0,0,1,.67-.23l.84-4.58a1.71,1.71,0,0,1-.65-.46l.27-.81C435.49,74.47,436.1,74.6,437.32,74.91Z"/><path class="cls-2" d="M439.31,78.82l-.87,2.53a1.35,1.35,0,0,1,.46.56l-.37.7c-.81-.29-1.22-.42-2-.66l.11-.78a1.35,1.35,0,0,1,.7-.19l1.35-4.5a1.71,1.71,0,0,1-.61-.57l.34-.72c1.06.3,1.59.47,2.64.85a33.47,33.47,0,0,1,.89,4.61,5.35,5.35,0,0,1,0,1.25l0,.26.13,0a8.73,8.73,0,0,1,.48-1.42l1.11-2.39a1.83,1.83,0,0,1-.5-.65l.44-.66c1,.43,1.45.67,2.4,1.17l-.25.76a1.85,1.85,0,0,1-.83,0L442.2,84.2c-.62-.32-.94-.47-1.57-.75a31.91,31.91,0,0,0-.71-4.57,6.78,6.78,0,0,1-.13-1.26v-.25h-.15A7.49,7.49,0,0,1,439.31,78.82Z"/><path class="cls-2" d="M452.82,82.93,451.87,84l-.71-.49a1,1,0,0,1,0-.55c-.51-.41-.77-.61-1.3-1l-2.78,3.81a1.72,1.72,0,0,1,.32.66l-.6.6a26.1,26.1,0,0,0-2.18-1.51l.35-.78a1.46,1.46,0,0,1,.72.06l2.58-4c-.54-.35-.81-.52-1.36-.85a1,1,0,0,1-.5.2l-.68-.48.7-1.27A32,32,0,0,1,452.82,82.93Z"/><path class="cls-1" d="M251.89,261.71v49.49H219.48V469H60.57V311.19H28.16V261.71h74.26a38,38,0,0,0,72.43,0Z"/><ellipse class="cls-2" cx="142.13" cy="359" rx="58.35" ry="58.37"/><ellipse class="cls-3" cx="141.87" cy="358.74" rx="45.06" ry="45.08"/><ellipse class="cls-2" cx="142.39" cy="359" rx="30.52" ry="30.53"/><ellipse class="cls-3" cx="142.13" cy="359" rx="16.49" ry="16.5"/><path class="cls-4" d="M125.5,404a1,1,0,0,1-1.46,0l-6.68-6.62-14.19,14.19a2.84,2.84,0,0,1-4,0l-6.5-6.5a2.84,2.84,0,0,1,0-4L106.79,387l-6.43-6.37a1,1,0,0,1,.33-1.69l34.22-10.83a1,1,0,0,1,1.35,1.35l-10.54,34.29A1.06,1.06,0,0,1,125.5,404Z"/><path class="cls-2" d="M118.93,323.81l.6.61a2.1,2.1,0,0,1-.4.72l2.75,3.75a1.68,1.68,0,0,1,.72-.11l.39.76a26.26,26.26,0,0,0-2.12,1.65l-.64-.57a1.5,1.5,0,0,1,.29-.68l-2.95-3.6a1.87,1.87,0,0,1-.8.22l-.44-.73A32.15,32.15,0,0,1,118.93,323.81Z"/><path class="cls-2" d="M128.77,322.17c-.1-.25-.22-.66-.36-1.21l-.06-.24-.12,0c0,.61,0,1.1,0,1.46a41.27,41.27,0,0,0,.09,4.27c-.54.24-.81.37-1.33.63a37.9,37.9,0,0,0-3.35-2.72,6.5,6.5,0,0,1-.95-.77l-.19-.16-.11.08a11.79,11.79,0,0,1,.87,1.24l1.36,2.31a1.38,1.38,0,0,1,.74,0l.29.74c-.76.43-1.14.67-1.88,1.16l-.53-.59a1.4,1.4,0,0,1,.33-.67l-2.54-4a1.8,1.8,0,0,1-.85.11l-.32-.73c1.05-.7,1.59-1,2.68-1.63a38.61,38.61,0,0,1,3.57,2.77,4.12,4.12,0,0,1,.92.92l.11.14.15-.07a3.71,3.71,0,0,1-.19-1.46,41.93,41.93,0,0,1,.06-4.47c1.13-.44,1.7-.64,2.85-1l.35.71a1.71,1.71,0,0,1-.6.58l1.42,4.44a1.41,1.41,0,0,1,.7.16l.14.84c-1,.29-1.43.45-2.37.82l-.41-.74a1.41,1.41,0,0,1,.46-.56Z"/><path class="cls-2" d="M135,321.89l-.52.1.24,1.18a1.87,1.87,0,0,1,1.08.2c0,.34,0,.51,0,.85a26,26,0,0,0-2.88.63l-.33-.79a1.4,1.4,0,0,1,.51-.48L132,319.08a1.73,1.73,0,0,1-.78-.15c0-.34-.06-.51-.09-.85a31.9,31.9,0,0,1,3.46-.77,5.25,5.25,0,0,1,2.79.14,1.78,1.78,0,0,1,1,1.67C138.48,320.66,137.33,321.45,135,321.89Zm-.44-3.45-.76.15.47,2.31.8-.15a2.38,2.38,0,0,0,1.18-.46,1.07,1.07,0,0,0,.28-1,.9.9,0,0,0-.58-.84A3,3,0,0,0,134.52,318.44Z"/><path class="cls-2" d="M145.84,319.12a1.53,1.53,0,0,1-.67,1.09,3.76,3.76,0,0,1-1.35.58,1.42,1.42,0,0,1,.73.59c.28.6.42.9.67,1.5a1.54,1.54,0,0,1,.66.47l-.22.76c-.73-.11-1.09-.15-1.83-.21-.41-1-.64-1.55-1.13-2.58-.11-.26-.26-.39-.42-.39l-.77,0,0,1.63a1.86,1.86,0,0,1,1,.43l-.15.84a26.16,26.16,0,0,0-2.93,0l-.16-.84a1.39,1.39,0,0,1,.6-.36L139.7,318a1.71,1.71,0,0,1-.73-.31c0-.34,0-.51.08-.85a32,32,0,0,1,3.39,0,5.76,5.76,0,0,1,2.71.65A1.58,1.58,0,0,1,145.84,319.12Zm-3.52-1.24-.76,0,0,1.93.7,0a3.14,3.14,0,0,0,1.26-.15.88.88,0,0,0,.1-1.5A2.73,2.73,0,0,0,142.32,317.88Z"/><path class="cls-2" d="M150.45,317.91c0,.34,0,.51-.08.85a2,2,0,0,1-.78.17l-1.07,4.53a1.61,1.61,0,0,1,.52.47l-.32.79c-1-.25-1.49-.35-2.5-.52,0-.34,0-.51,0-.85a1.39,1.39,0,0,1,.67-.23l.84-4.58a1.71,1.71,0,0,1-.65-.46l.27-.81C148.62,317.47,149.24,317.6,150.45,317.91Z"/><path class="cls-2" d="M152.45,321.82l-.87,2.53a1.35,1.35,0,0,1,.46.56l-.37.7c-.81-.29-1.22-.42-2-.66l.11-.78a1.35,1.35,0,0,1,.7-.19l1.35-4.5a1.71,1.71,0,0,1-.61-.57l.34-.72c1.06.3,1.59.47,2.64.85a33.47,33.47,0,0,1,.89,4.61,5.34,5.34,0,0,1,0,1.25l0,.26.13,0a8.74,8.74,0,0,1,.48-1.42l1.11-2.39a1.83,1.83,0,0,1-.5-.65l.44-.66c1,.43,1.45.67,2.4,1.17l-.25.76a1.85,1.85,0,0,1-.83,0l-2.66,5.21c-.62-.32-.94-.47-1.57-.75a31.92,31.92,0,0,0-.71-4.57,6.78,6.78,0,0,1-.13-1.26v-.25h-.15A7.48,7.48,0,0,1,152.45,321.82Z"/><path class="cls-2" d="M166,325.93,165,327l-.71-.49a1,1,0,0,1,0-.55c-.51-.41-.77-.61-1.3-1l-2.78,3.81a1.72,1.72,0,0,1,.32.66l-.6.6a26.09,26.09,0,0,0-2.18-1.51l.35-.78a1.46,1.46,0,0,1,.72.06l2.58-4c-.54-.35-.81-.52-1.36-.85a1,1,0,0,1-.5.2l-.68-.48.7-1.27A32,32,0,0,1,166,325.93Z"/><path class="cls-1" d="M543.76,261.71v49.49H511.35V469H352.43V311.19H320V261.71h74.26a38,38,0,0,0,72.43,0Z"/><ellipse class="cls-2" cx="434" cy="359" rx="58.35" ry="58.37"/><ellipse class="cls-3" cx="433.74" cy="358.74" rx="45.06" ry="45.08"/><ellipse class="cls-2" cx="434.26" cy="359" rx="30.52" ry="30.53"/><ellipse class="cls-3" cx="434" cy="359" rx="16.49" ry="16.5"/><path class="cls-4" d="M417.37,404a1,1,0,0,1-1.46,0l-6.68-6.62L395,411.63a2.84,2.84,0,0,1-4,0l-6.5-6.5a2.84,2.84,0,0,1,0-4L398.66,387l-6.43-6.37a1,1,0,0,1,.33-1.69l34.22-10.83a1,1,0,0,1,1.35,1.35l-10.54,34.29A1.06,1.06,0,0,1,417.37,404Z"/><path class="cls-2" d="M410.8,323.81l.6.61a2.1,2.1,0,0,1-.4.72l2.75,3.75a1.68,1.68,0,0,1,.72-.11l.39.76a26.25,26.25,0,0,0-2.12,1.65l-.64-.57a1.5,1.5,0,0,1,.29-.68l-2.95-3.6a1.87,1.87,0,0,1-.8.22l-.44-.73A32.16,32.16,0,0,1,410.8,323.81Z"/><path class="cls-2" d="M420.63,322.17c-.1-.25-.22-.66-.36-1.21l-.06-.24-.12,0c0,.61,0,1.1,0,1.46a41.28,41.28,0,0,0,.09,4.27c-.54.24-.81.37-1.33.63a37.9,37.9,0,0,0-3.35-2.72,6.5,6.5,0,0,1-.95-.77l-.19-.16-.11.08a11.78,11.78,0,0,1,.87,1.24l1.36,2.31a1.38,1.38,0,0,1,.74,0l.29.74c-.76.43-1.14.67-1.88,1.16l-.53-.59a1.4,1.4,0,0,1,.33-.67l-2.54-4a1.8,1.8,0,0,1-.85.11l-.32-.73c1.05-.7,1.59-1,2.68-1.63A38.6,38.6,0,0,1,418,324.3a4.12,4.12,0,0,1,.92.92l.11.14.15-.07a3.71,3.71,0,0,1-.19-1.46,41.94,41.94,0,0,1,.06-4.47c1.13-.44,1.7-.64,2.85-1l.35.71a1.72,1.72,0,0,1-.6.58l1.42,4.44a1.41,1.41,0,0,1,.7.16l.14.84c-1,.29-1.43.45-2.37.82l-.41-.74a1.41,1.41,0,0,1,.46-.56Z"/><path class="cls-2" d="M426.83,321.89l-.52.1.24,1.18a1.87,1.87,0,0,1,1.08.2c0,.34,0,.51,0,.85a26,26,0,0,0-2.88.63l-.33-.79a1.4,1.4,0,0,1,.51-.48l-1.15-4.51a1.73,1.73,0,0,1-.78-.15c0-.34-.06-.51-.09-.85a31.9,31.9,0,0,1,3.46-.77,5.25,5.25,0,0,1,2.79.14,1.78,1.78,0,0,1,1,1.67C430.35,320.66,429.2,321.45,426.83,321.89Zm-.44-3.45-.76.15.47,2.31.8-.15a2.38,2.38,0,0,0,1.18-.46,1.07,1.07,0,0,0,.28-1,.9.9,0,0,0-.58-.84A3,3,0,0,0,426.39,318.44Z"/><path class="cls-2" d="M437.71,319.12a1.53,1.53,0,0,1-.67,1.09,3.76,3.76,0,0,1-1.35.58,1.42,1.42,0,0,1,.73.59c.28.6.42.9.67,1.5a1.54,1.54,0,0,1,.66.47l-.22.76c-.73-.11-1.09-.15-1.83-.21-.41-1-.64-1.55-1.13-2.58-.11-.26-.26-.39-.42-.39l-.77,0,0,1.63a1.86,1.86,0,0,1,1,.43l-.15.84a26.16,26.16,0,0,0-2.93,0l-.16-.84a1.39,1.39,0,0,1,.6-.36l-.18-4.65a1.71,1.71,0,0,1-.73-.31c0-.34,0-.51.08-.85a32,32,0,0,1,3.39,0,5.76,5.76,0,0,1,2.71.65A1.58,1.58,0,0,1,437.71,319.12Zm-3.52-1.24-.76,0,0,1.93.7,0a3.14,3.14,0,0,0,1.26-.15.88.88,0,0,0,.1-1.5A2.73,2.73,0,0,0,434.19,317.88Z"/><path class="cls-2" d="M442.32,317.91c0,.34,0,.51-.08.85a2,2,0,0,1-.78.17l-1.07,4.53a1.61,1.61,0,0,1,.52.47l-.32.79c-1-.25-1.49-.35-2.5-.52,0-.34,0-.51,0-.85a1.39,1.39,0,0,1,.67-.23l.84-4.58a1.71,1.71,0,0,1-.65-.46l.27-.81C440.49,317.47,441.1,317.6,442.32,317.91Z"/><path class="cls-2" d="M444.31,321.82l-.87,2.53a1.35,1.35,0,0,1,.46.56l-.37.7c-.81-.29-1.22-.42-2-.66l.11-.78a1.35,1.35,0,0,1,.7-.19l1.35-4.5a1.71,1.71,0,0,1-.61-.57l.34-.72c1.06.3,1.59.47,2.64.85a33.47,33.47,0,0,1,.89,4.61,5.35,5.35,0,0,1,0,1.25l0,.26.13,0a8.73,8.73,0,0,1,.48-1.42l1.11-2.39a1.83,1.83,0,0,1-.5-.65l.44-.66c1,.43,1.45.67,2.4,1.17l-.25.76a1.85,1.85,0,0,1-.83,0l-2.66,5.21c-.62-.32-.94-.47-1.57-.75a31.91,31.91,0,0,0-.71-4.57,6.78,6.78,0,0,1-.13-1.26v-.25h-.15A7.49,7.49,0,0,1,444.31,321.82Z"/><path class="cls-2" d="M457.82,325.93l-.95,1.11-.71-.49a1,1,0,0,1,0-.55c-.51-.41-.77-.61-1.3-1l-2.78,3.81a1.72,1.72,0,0,1,.32.66l-.6.6a26.1,26.1,0,0,0-2.18-1.51l.35-.78a1.46,1.46,0,0,1,.72.06l2.58-4c-.54-.35-.81-.52-1.36-.85a1,1,0,0,1-.5.2l-.68-.48.7-1.27A32,32,0,0,1,457.82,325.93Z"/></svg>