<svg id="Layer_2" data-name="Layer 2" xmlns="http://www.w3.org/2000/svg" viewBox="0 0 100 100"><defs><style>.cls-1{fill:#fff;stroke-width:0.9px;}.cls-1,.cls-2{stroke:#231f20;stroke-linecap:round;stroke-linejoin:round;}.cls-2{stroke-width:0.68px;}</style></defs><title>Artboard 1</title><rect class="cls-1" x="7.83" y="9.27" width="77.33" height="76.73" rx="16.73" ry="16.73"/><path class="cls-2" d="M18.34,75.44A22.69,22.69,0,0,0,37,70.13s-8,.45-11.63-8.81a14,14,0,0,0,5.64,0s-9.93-2.48-9.93-12.64a12.27,12.27,0,0,0,5.76,1.47s-9.71-5.42-4-16.82c0,0,10.39,13.1,26,13.1,0,0-2.94-9.93,7.79-14.56a13.41,13.41,0,0,1,13.77,2.94s6.89-1.47,7.9-3c0,0-.68,3.5-5.31,7a22.77,22.77,0,0,0,6.77-1.81s-.9,2.82-6,6.21c0,0,1.35,19-14,30.48C59.78,73.63,41.49,88.76,18.34,75.44Z"/></svg>