<svg id="Layer_1" data-name="Layer 1" xmlns="http://www.w3.org/2000/svg" viewBox="0 0 444.24 86.84"><defs><style>.cls-1{fill:#2bb673;}</style></defs><title>Artboard 1</title><path class="cls-1" d="M45.94,7.8,56.46,29.1a.89.89,0,0,0,.67.49L80.64,33a.89.89,0,0,1,.49,1.52l-17,16.58a.89.89,0,0,0-.26.79l4,23.42a.89.89,0,0,1-1.29.94l-21-11.06a.89.89,0,0,0-.83,0l-21,11.06a.89.89,0,0,1-1.29-.94l4-23.42a.89.89,0,0,0-.26-.79l-17-16.58A.89.89,0,0,1,9.64,33l23.51-3.42a.89.89,0,0,0,.67-.49L44.34,7.8A.89.89,0,0,1,45.94,7.8Z"/><path class="cls-1" d="M130.5,7.8,141,29.1a.89.89,0,0,0,.67.49L165.2,33a.89.89,0,0,1,.49,1.52l-17,16.58a.89.89,0,0,0-.26.79l4,23.42a.89.89,0,0,1-1.29.94l-21-11.06a.89.89,0,0,0-.83,0l-21,11.06a.89.89,0,0,1-1.29-.94l4-23.42a.89.89,0,0,0-.26-.79l-17-16.58A.89.89,0,0,1,94.2,33l23.51-3.42a.89.89,0,0,0,.67-.49L128.9,7.8A.89.89,0,0,1,130.5,7.8Z"/><path class="cls-1" d="M218.53,7.8,229,29.1a.89.89,0,0,0,.67.49L253.23,33a.89.89,0,0,1,.49,1.52l-17,16.58a.89.89,0,0,0-.26.79l4,23.42a.89.89,0,0,1-1.29.94l-21-11.06a.89.89,0,0,0-.83,0l-21,11.06a.89.89,0,0,1-1.29-.94l4-23.42a.89.89,0,0,0-.26-.79l-17-16.58a.89.89,0,0,1,.49-1.52l23.51-3.42a.89.89,0,0,0,.67-.49L216.93,7.8A.89.89,0,0,1,218.53,7.8Z"/><path class="cls-1" d="M307.72,7.8,318.23,29.1a.89.89,0,0,0,.67.49L342.42,33a.89.89,0,0,1,.49,1.52l-17,16.58a.89.89,0,0,0-.26.79l4,23.42a.89.89,0,0,1-1.29.94l-21-11.06a.89.89,0,0,0-.83,0l-21,11.06a.89.89,0,0,1-1.29-.94l4-23.42a.89.89,0,0,0-.26-.79l-17-16.58a.89.89,0,0,1,.49-1.52l23.51-3.42a.89.89,0,0,0,.67-.49L306.12,7.8A.89.89,0,0,1,307.72,7.8Z"/><path class="cls-1" d="M395.36,7.8,405.88,29.1a.89.89,0,0,0,.67.49L430.06,33a.89.89,0,0,1,.49,1.52l-17,16.58a.89.89,0,0,0-.26.79l4,23.42a.89.89,0,0,1-1.29.94L395,65.2a.89.89,0,0,0-.83,0l-21,11.06a.89.89,0,0,1-1.29-.94l4-23.42a.89.89,0,0,0-.26-.79l-17-16.58a.89.89,0,0,1,.49-1.52l23.51-3.42a.89.89,0,0,0,.67-.49L393.76,7.8A.89.89,0,0,1,395.36,7.8Z"/></svg>