<svg id="Layer_1" data-name="Layer 1" xmlns="http://www.w3.org/2000/svg" viewBox="0 0 250 250"><defs><style>.cls-1{fill:#39b54a;}.cls-2,.cls-5{fill:#231f20;}.cls-2,.cls-3{stroke:#231f20;stroke-miterlimit:10;}.cls-3,.cls-4{fill:#fff;}.cls-3{stroke-width:0.78px;}.cls-5{font-size:20px;font-family:Quicksand-Medium, Quicksand;}.cls-6{letter-spacing:-0.01em;}.cls-7{letter-spacing:-0.05em;}</style></defs><title>Artboard 1</title><rect class="cls-1" x="28" y="28.67" width="32" height="191.48"/><path class="cls-2" d="M231.33,124A93.34,93.34,0,0,1,46.67,143.33H67.6c8.52,30.53,37,53,70.81,53,40.55,0,73.41-32.25,73.41-72s-32.86-72-73.41-72A73.47,73.47,0,0,0,70.85,96H48.94a93.35,93.35,0,0,1,182.39,28Z"/><path class="cls-2" d="M211.82,124.25c0,39.79-32.86,72-73.41,72-33.82,0-62.29-22.43-70.81-53H46.67A93.82,93.82,0,0,1,48.94,96H70.85a73.47,73.47,0,0,1,67.56-43.79C179,52.21,211.82,84.46,211.82,124.25Z"/><path class="cls-3" d="M211.82,124.25c0,39.79-32.86,72-73.41,72-33.82,0-62.29-22.43-70.81-53A71,71,0,0,1,70.85,96a73.47,73.47,0,0,1,67.56-43.79C179,52.21,211.82,84.46,211.82,124.25Z"/><rect class="cls-4" x="4.67" y="96" width="114" height="47.33"/><text class="cls-5" transform="translate(6.67 127.47)"><tspan class="cls-6">L</tspan><tspan x="10.8" y="0">OGO TEMPL</tspan><tspan class="cls-7" x="123.9" y="0">A</tspan><tspan x="135.74" y="0">TES</tspan></text></svg>