<svg id="Layer_1" data-name="Layer 1" xmlns="http://www.w3.org/2000/svg" viewBox="0 0 250 250"><defs><style>.cls-1{fill:#39b54a;}.cls-2{font-size:20px;font-family:Quicksand-Medium, Quicksand;}.cls-2,.cls-5,.cls-8{fill:#231f20;}.cls-3{letter-spacing:-0.02em;}.cls-4{letter-spacing:-0.05em;}.cls-6{fill:none;stroke-width:2.54px;}.cls-6,.cls-8{stroke:#231f20;stroke-miterlimit:10;}.cls-7{fill:#fff;}.cls-8{stroke-width:0.1px;}</style></defs><title>Artboard 1 copy 2</title><path class="cls-1" d="M28.67,51.6h32a0,0,0,0,1,0,0v183a0,0,0,0,1,0,0H42.23a13.56,13.56,0,0,1-13.56-13.56V51.6A0,0,0,0,1,28.67,51.6Z"/><text class="cls-2" transform="translate(68.33 166.81)">S<tspan class="cls-3" x="11.64" y="0">T</tspan><tspan x="23.58" y="0">ORE </tspan><tspan x="0" y="24">TEMPL</tspan><tspan class="cls-4" x="63.18" y="24">A</tspan><tspan x="75.02" y="24">TES</tspan></text><path class="cls-5" d="M33,15.55H230.27a6.32,6.32,0,0,1,6.32,6.32V52a0,0,0,0,1,0,0H26.67a0,0,0,0,1,0,0V21.87A6.32,6.32,0,0,1,33,15.55Z"/><rect class="cls-6" x="28" y="36" width="206.98" height="198.33" rx="14.63" ry="14.63"/><rect class="cls-1" x="77.34" y="28.33" width="42" height="12.67"/><rect class="cls-1" x="128.01" y="28.33" width="42" height="12.67"/><rect class="cls-1" x="179.34" y="28.33" width="42" height="12.67"/><rect class="cls-5" x="69.33" y="63.34" width="152.67" height="4.67"/><rect class="cls-5" x="70" y="139.34" width="152.67" height="4.67"/><rect class="cls-5" x="71.19" y="129" width="45.27" height="4.67"/><rect class="cls-5" x="125.61" y="129" width="45.27" height="4.67"/><rect class="cls-5" x="179.4" y="129.66" width="45.27" height="4.67"/><path class="cls-1" d="M117.25,81.05V91h-6.51v31.68H78.84V91H72.33V81.05H87.24a7.63,7.63,0,0,0,14.54,0Z"/><path class="cls-1" d="M169.79,81.05V91h-6.51v31.68h-31.9V91h-6.51V81.05h14.91a7.63,7.63,0,0,0,14.54,0Z"/><path class="cls-1" d="M223,81.05V91h-6.51v31.68h-31.9V91h-6.51V81.05H193a7.63,7.63,0,0,0,14.54,0Z"/><rect class="cls-7" x="83.63" y="93.27" width="3.2" height="19.15"/><path class="cls-8" d="M104,102.8a9.33,9.33,0,0,1-18.47,1.93h2.09a7.21,7.21,0,1,0,.33-4.73H85.72A9.33,9.33,0,0,1,104,102.8Z"/><path class="cls-8" d="M102,102.82a7.36,7.36,0,0,1-14.42,1.91H85.49a9.38,9.38,0,0,1,.23-4.73h2.19a7.35,7.35,0,0,1,6.76-4.38A7.27,7.27,0,0,1,102,102.82Z"/><path class="cls-1" d="M102,102.82a7.36,7.36,0,0,1-14.42,1.91,7.1,7.1,0,0,1,.33-4.73,7.35,7.35,0,0,1,6.76-4.38A7.27,7.27,0,0,1,102,102.82Z"/><rect class="cls-1" x="81.29" y="100" width="11.4" height="4.73"/><circle class="cls-1" cx="37.78" cy="25" r="3.78"/><circle class="cls-1" cx="48.67" cy="25" r="3.78"/><circle class="cls-1" cx="58.98" cy="25" r="3.78"/></svg>