<svg id="Layer_1" data-name="Layer 1" xmlns="http://www.w3.org/2000/svg" viewBox="0 0 250 250"><defs><style>.cls-1{fill:#39b54a;}.cls-2{font-size:20px;font-family:Quicksand-Medium, Quicksand;}.cls-2,.cls-4,.cls-6{fill:#231f20;}.cls-3{letter-spacing:-0.05em;}.cls-5{fill:none;stroke-width:2.54px;}.cls-5,.cls-6,.cls-7{stroke:#231f20;stroke-miterlimit:10;}.cls-6{stroke-width:0.14px;}.cls-7,.cls-8{fill:#fff;}.cls-7{stroke-width:0.11px;}</style></defs><title>Artboard 1 copy</title><path class="cls-1" d="M20.67,46.93h32a0,0,0,0,1,0,0V230a0,0,0,0,1,0,0H34.23a13.56,13.56,0,0,1-13.56-13.56V46.93A0,0,0,0,1,20.67,46.93Z"/><text class="cls-2" transform="translate(60.33 96.81)">WEBSITE <tspan x="0" y="24">TEMPL</tspan><tspan class="cls-3" x="63.18" y="24">A</tspan><tspan x="75.02" y="24">TES</tspan></text><path class="cls-4" d="M25,10H222.27a6.32,6.32,0,0,1,6.32,6.32V46.45a0,0,0,0,1,0,0H18.67a0,0,0,0,1,0,0V16.32A6.32,6.32,0,0,1,25,10Z"/><rect class="cls-5" x="20" y="31.33" width="206.98" height="198.33" rx="14.63" ry="14.63"/><rect class="cls-1" x="71.34" y="23.67" width="42" height="12.67"/><rect class="cls-1" x="59.83" y="134.12" width="31.99" height="44.64"/><rect class="cls-1" x="97.06" y="134.55" width="31.99" height="44.64"/><rect class="cls-1" x="134.01" y="134.69" width="31.99" height="44.64"/><rect class="cls-1" x="172.01" y="135.35" width="31.99" height="44.64"/><rect class="cls-1" x="122.01" y="23.67" width="42" height="12.67"/><rect class="cls-1" x="173.34" y="23.67" width="42" height="12.67"/><rect class="cls-4" x="59.33" y="186.01" width="152.67" height="4.67"/><rect class="cls-4" x="60" y="194.67" width="93.49" height="4.83"/><rect class="cls-1" x="60.7" y="50.49" width="4.61" height="27.6"/><path class="cls-6" d="M90,64.23A13.45,13.45,0,0,1,63.39,67h3a10.4,10.4,0,1,0,.47-6.82H63.71a13.45,13.45,0,0,1,26.29,4Z"/><path class="cls-6" d="M87.19,64.27A10.61,10.61,0,0,1,66.4,67h-3a13.52,13.52,0,0,1,.33-6.82h3.16a10.59,10.59,0,0,1,9.74-6.31A10.48,10.48,0,0,1,87.19,64.27Z"/><path class="cls-7" d="M87.19,64.27A10.61,10.61,0,0,1,66.4,67a10.24,10.24,0,0,1,.47-6.82,10.59,10.59,0,0,1,9.74-6.31A10.48,10.48,0,0,1,87.19,64.27Z"/><rect class="cls-8" x="57.33" y="60.2" width="16.43" height="6.82"/><circle class="cls-1" cx="29.78" cy="19" r="3.78"/><circle class="cls-1" cx="40.67" cy="19" r="3.78"/><circle class="cls-1" cx="50.98" cy="19" r="3.78"/></svg>