<svg id="Layer_1" data-name="Layer 1" xmlns="http://www.w3.org/2000/svg" viewBox="0 0 790 500"><defs><style>.cls-1{fill:#2bb673;}.cls-2{fill:#231f20;stroke-width:2.7px;}.cls-2,.cls-3,.cls-4,.cls-5,.cls-6{stroke:#231f20;}.cls-2,.cls-4,.cls-6,.cls-8{stroke-linecap:round;}.cls-2,.cls-3,.cls-4,.cls-5{stroke-miterlimit:10;}.cls-3,.cls-4,.cls-5{fill:#fff;}.cls-3{stroke-width:1.43px;}.cls-4{stroke-width:2.9px;}.cls-5,.cls-6{stroke-width:2px;}.cls-6,.cls-8{fill:none;stroke-linejoin:round;}.cls-7{fill:#88c86f;}.cls-8{stroke:#fff;stroke-width:13px;}</style></defs><title>Artboard 1</title><path class="cls-1" d="M163.37,46.46H633.12A44.53,44.53,0,0,1,677.65,91v324.7a0,0,0,0,1,0,0H118.84a0,0,0,0,1,0,0V91a44.53,44.53,0,0,1,44.53-44.53Z"/><path class="cls-2" d="M179.34,69.59h435a40.91,40.91,0,0,1,40.91,40.91V412.73a0,0,0,0,1,0,0H138.43a0,0,0,0,1,0,0V110.5A40.91,40.91,0,0,1,179.34,69.59Z"/><rect class="cls-3" x="159.33" y="134.72" width="470.61" height="259.97"/><rect class="cls-4" x="159.33" y="133.27" width="99.64" height="264.27"/><path class="cls-3" d="M169.2,91.71h452a9.29,9.29,0,0,1,9.29,9.29v12.07a0,0,0,0,1,0,0H159.91a0,0,0,0,1,0,0V101A9.29,9.29,0,0,1,169.2,91.71Z"/><rect class="cls-5" x="159.67" y="113.48" width="470.61" height="21.36"/><circle class="cls-6" cx="176.98" cy="102.34" r="7.01"/><circle class="cls-6" cx="197.18" cy="102.34" r="7.01"/><circle class="cls-6" cx="216.32" cy="102.34" r="7.01"/><rect class="cls-1" x="12.74" y="446.05" width="750.33" height="31.93" rx="13.87" ry="13.87"/><polygon class="cls-7" points="752.92 446.06 23.64 446.79 118.84 415.69 677.65 415.69 752.92 446.06"/><circle class="cls-1" cx="407" cy="257" r="87"/><line class="cls-8" x1="355" y1="255.99" x2="392.5" y2="293.49"/><line class="cls-8" x1="392.96" y1="293.59" x2="466" y2="220.99"/></svg>